<svg id="aboutdark" xmlns="http://www.w3.org/2000/svg" width="25.795" height="26.274" viewBox="0 0 25.795 26.274">
  <path id="Path_8" data-name="Path 8" d="M315.759,122.788a1.364,1.364,0,1,0-.969-.4,1.368,1.368,0,0,0,.969.4Z" transform="translate(-303.203 -114.537)" fill="#2b2b2b"/>
  <path id="Path_9" data-name="Path 9" d="M312.906,203.587h-.325a.171.171,0,0,1-.175-.171v-6.332a.2.2,0,0,0-.2-.209h-2.257a.359.359,0,0,0-.359.359v1a.354.354,0,0,0,.359.359.325.325,0,0,1,.325.326v4.351a.321.321,0,0,1-.325.321h-.192a.363.363,0,0,0-.359.359v1.114a.363.363,0,0,0,.359.359h3.153a.363.363,0,0,0,.359-.359v-1.114a.363.363,0,0,0-.359-.359Z" transform="translate(-298.445 -187.698)" fill="#2b2b2b"/>
  <path id="Path_10" data-name="Path 10" d="M93.995,4.375h-2.8a11.483,11.483,0,1,0,0,22.967H92.71v2.086h0a1.251,1.251,0,0,0,2.123.868l3.808-3.888a.5.5,0,0,1,.163-.117,11.479,11.479,0,0,0-4.81-21.916ZM97.924,24.4a2.645,2.645,0,0,0-.776.546l-2.353,2.4v-.53a1.564,1.564,0,0,0-1.56-1.56H91.192a9.4,9.4,0,1,1,0-18.8h2.8A9.394,9.394,0,0,1,97.924,24.4Z" transform="translate(-79.708 -4.375)" fill="#2b2b2b"/>
</svg>
