<svg id="aboutimg" xmlns="http://www.w3.org/2000/svg" width="235.538" height="199.24" viewBox="0 0 235.538 199.24">
  <path id="Path_586" data-name="Path 586" d="M546.054,282.859H482.571a6.425,6.425,0,0,1-6.417-6.417V192.382a6.424,6.424,0,0,1,6.417-6.417h63.483a6.425,6.425,0,0,1,6.417,6.417v84.059A6.425,6.425,0,0,1,546.054,282.859Z" transform="translate(-394.362 -163.047)" fill="#e6e6e6"/>
  <path id="Path_587" data-name="Path 587" d="M554.248,290.573H499.689a5.7,5.7,0,0,1-5.7-5.7v-74.8a5.7,5.7,0,0,1,5.7-5.7h54.559a5.7,5.7,0,0,1,5.7,5.7v74.8A5.7,5.7,0,0,1,554.248,290.573Z" transform="translate(-407.018 -176.109)" fill="#fff"/>
  <path id="Path_588" data-name="Path 588" d="M572.535,246.354H528.862a1.424,1.424,0,0,1,0-2.849h43.673a1.424,1.424,0,0,1,0,2.849Z" transform="translate(-430.748 -203.871)" fill="#e4e4e4"/>
  <path id="Path_589" data-name="Path 589" d="M572.535,265.727H528.862a1.424,1.424,0,0,1,0-2.849h43.673a1.424,1.424,0,1,1,0,2.849Z" transform="translate(-430.748 -217.617)" fill="#e4e4e4"/>
  <path id="Path_590" data-name="Path 590" d="M547.793,285.1H528.862a1.424,1.424,0,0,1,0-2.849h18.931a1.424,1.424,0,1,1,0,2.849Z" transform="translate(-430.748 -231.363)" fill="#e4e4e4"/>
  <path id="Path_591" data-name="Path 591" d="M572.535,325.679H528.862a1.424,1.424,0,0,1,0-2.849h43.673a1.424,1.424,0,0,1,0,2.849Z" transform="translate(-430.748 -260.153)" fill="#e4e4e4"/>
  <path id="Path_592" data-name="Path 592" d="M572.535,345.054H528.862a1.424,1.424,0,0,1,0-2.849h43.673a1.424,1.424,0,1,1,0,2.849Z" transform="translate(-430.748 -273.899)" fill="#e4e4e4"/>
  <path id="Path_593" data-name="Path 593" d="M547.793,364.428H528.862a1.424,1.424,0,0,1,0-2.849h18.931a1.424,1.424,0,1,1,0,2.849Z" transform="translate(-430.748 -287.645)" fill="#e4e4e4"/>
  <path id="Path_594" data-name="Path 594" d="M572.535,405.006H528.862a1.424,1.424,0,0,1,0-2.849h43.673a1.424,1.424,0,0,1,0,2.849Z" transform="translate(-430.748 -316.435)" fill="#e4e4e4"/>
  <path id="Path_595" data-name="Path 595" d="M572.535,424.38H528.862a1.424,1.424,0,0,1,0-2.849h43.673a1.424,1.424,0,1,1,0,2.849Z" transform="translate(-430.748 -330.181)" fill="#e4e4e4"/>
  <path id="Path_596" data-name="Path 596" d="M547.793,443.754H528.862a1.424,1.424,0,0,1,0-2.849h18.931a1.424,1.424,0,1,1,0,2.849Z" transform="translate(-430.748 -343.927)" fill="#e4e4e4"/>
  <path id="Path_597" data-name="Path 597" d="M175.865,143.631l-47.449-40.585H96.539v-.6h32.1l47.617,40.729Z" transform="translate(-68.495 -72.687)" fill="#2f2e41"/>
  <circle id="Ellipse_77" data-name="Ellipse 77" cx="4.783" cy="4.783" r="4.783" transform="translate(23.261 25.277)" fill="#019ba1"/>
  <path id="Path_598" data-name="Path 598" d="M239.7,258.975H196.022a1.424,1.424,0,0,1,0-2.849H239.7a1.424,1.424,0,0,1,0,2.849Z" transform="translate(-194.598 -212.826)" fill="#019ba1"/>
  <path id="Path_599" data-name="Path 599" d="M239.7,278.348H196.022a1.424,1.424,0,1,1,0-2.849H239.7a1.424,1.424,0,1,1,0,2.849Z" transform="translate(-194.598 -226.571)" fill="#019ba1"/>
  <path id="Path_600" data-name="Path 600" d="M214.954,297.723H196.022a1.424,1.424,0,0,1,0-2.849h18.931a1.424,1.424,0,0,1,0,2.849Z" transform="translate(-194.598 -240.318)" fill="#019ba1"/>
  <path id="Path_601" data-name="Path 601" d="M412.912,56.165l47.617-40.729h32.1v.6H460.749L413.3,56.619Z" transform="translate(-292.962 -10.952)" fill="#2f2e41"/>
  <circle id="Ellipse_78" data-name="Ellipse 78" cx="4.783" cy="4.783" r="4.783" transform="translate(194.882)" fill="#019ba1"/>
  <path id="Path_602" data-name="Path 602" d="M883.728,171.386H840.054a1.424,1.424,0,1,1,0-2.849h43.673a1.424,1.424,0,1,1,0,2.849Z" transform="translate(-651.54 -150.681)" fill="#019ba1"/>
  <path id="Path_603" data-name="Path 603" d="M883.728,190.759H840.054a1.424,1.424,0,0,1,0-2.849h43.673a1.424,1.424,0,0,1,0,2.849Z" transform="translate(-651.539 -164.427)" fill="#019ba1"/>
  <path id="Path_604" data-name="Path 604" d="M858.986,210.134H840.054a1.424,1.424,0,0,1,0-2.849h18.931a1.424,1.424,0,1,1,0,2.849Z" transform="translate(-651.54 -178.173)" fill="#019ba1"/>
  <path id="Path_605" data-name="Path 605" d="M872.237,541.792a2.489,2.489,0,0,1,.5-3.783l-2.039-8.6,4.316,1.577,1.275,7.93a2.5,2.5,0,0,1-4.048,2.882Z" transform="translate(-674.289 -406.717)" fill="#9e616a"/>
  <path id="Path_606" data-name="Path 606" d="M840.275,408.031l1.732,4.454s-.742,4.454.495,5.444.742.99.742,1.732a3.806,3.806,0,0,0,1.485,2.722c.99.742,5.444,15.838,5.444,15.838h4.454a13.96,13.96,0,0,1,0-3.465,18.277,18.277,0,0,0-1.237-6.929c-.495-.742,0-1.732,0-3.217s-.99-2.227-.99-4.7-2.97-21.777-2.722-24S847.2,391.7,847.2,391.7h-2.475Z" transform="translate(-652.707 -309.015)" fill="#e6e7e8"/>
  <path id="Path_607" data-name="Path 607" d="M599.542,370.168l-4.117,18.374,26.384-1.641-7.174-18.045Z" transform="translate(-422.455 -261.704)" fill="#9e616a"/>
  <path id="Path_608" data-name="Path 608" d="M932.469,676.307a28.151,28.151,0,0,1-3.634,8c-3.625,5.482-8.814,9.674-14.516,13.029-.4.235-.8.465-1.2.691h-4l-.139-.32v0l-.163-.369-.02-.044-.009.044-.16.691h-1.964c-.163-.229-.322-.459-.479-.691-.229-.34-.45-.683-.659-1.031a16.747,16.747,0,0,1-.988-1.894c-.035-.073-.064-.145-.093-.218l.131-.142-.543-2.376,1.092-.18-1.2-3.692c.044-.137.093-.273.145-.41a9.189,9.189,0,0,1,3.428-4.035,52.2,52.2,0,0,1,4.979-2.9c.773-.433,1.534-.889,2.275-1.371v0q1.421-.919,2.757-1.967a.408.408,0,0,0,.044-.032.31.31,0,0,0,.035-.029,40.932,40.932,0,0,0,9.967-11.309h0a0,0,0,0,0,0,0c.087-.139.168-.279.25-.421v0a39.565,39.565,0,0,0,2.734-5.708v0c.058-.145.11-.291.166-.436q.113.192.218.383h0v0C933.75,664.595,934.017,670.666,932.469,676.307Z" transform="translate(-697.87 -498.785)" fill="#f0f0f0"/>
  <path id="Path_609" data-name="Path 609" d="M943.267,659.2a35.26,35.26,0,0,1-.834,8,34.458,34.458,0,0,1-.976,3.556,35.257,35.257,0,0,1-2.943,6.565c-.067.113-.131.224-.2.334v0a29.758,29.758,0,0,1-1.67,2.516,13.864,13.864,0,0,1-3.312,3.329,8.74,8.74,0,0,1-3.48,1.345c-.232.044-.471.076-.712.1-.962.113-1.955.157-2.908.36a6.352,6.352,0,0,0-1.4.45,5.341,5.341,0,0,0-2.774,3.794c-.067.279-.119.561-.16.842-.317,2.164.032,4.413-.148,6.58-.02.229-.046.462-.078.691h-.215l-.139-.32v0c.014-.122.026-.244.038-.369a27.973,27.973,0,0,0,.026-3.2c-.012-.479-.02-.961-.014-1.444.006-.386.02-.773.049-1.156v0c.02-.238.044-.474.076-.709a9.177,9.177,0,0,1,.529-2.106,5.273,5.273,0,0,1,3-3.1,7.831,7.831,0,0,1,1.3-.363c.973-.186,1.978-.232,2.957-.354.1-.012.209-.026.311-.044.131-.02.258-.044.386-.067A8.328,8.328,0,0,0,933.5,682.9a15.082,15.082,0,0,0,3.19-3.463c.476-.683.929-1.38,1.351-2.1v0h0l.061-.1,0-.006a34.732,34.732,0,0,0,3.91-9.926c.026-.128.055-.256.084-.383a35.115,35.115,0,0,0,.776-7.669v0c0-.122,0-.241-.006-.363-.006-.25.381-.305.386-.055,0,.122.006.244,0,.366h0v0Z" transform="translate(-710.206 -498.432)" fill="#fff"/>
  <path id="Path_610" data-name="Path 610" d="M978.987,719.142a5.234,5.234,0,0,0,6.593-1.573c.148-.2-.161-.442-.309-.239a4.847,4.847,0,0,1-6.135,1.451C978.911,718.666,978.765,719.028,978.987,719.142Z" transform="translate(-751.045 -539.996)" fill="#fff"/>
  <path id="Path_611" data-name="Path 611" d="M949,729.179a10.088,10.088,0,0,1,.357-7.344c.1-.229-.258-.377-.361-.148a10.493,10.493,0,0,0-.356,7.642C948.722,729.568,949.082,729.417,949,729.179Z" transform="translate(-729.2 -543.062)" fill="#fff"/>
  <path id="Path_612" data-name="Path 612" d="M987.375,682.182a2.963,2.963,0,0,1-2.04-1.935c-.078-.239-.438-.087-.36.151a3.32,3.32,0,0,0,2.252,2.145.2.2,0,0,0,.255-.107A.2.2,0,0,0,987.375,682.182Z" transform="translate(-755.364 -513.655)" fill="#fff"/>
  <path id="Path_613" data-name="Path 613" d="M903.906,667.606v0a38.13,38.13,0,0,1-.776,6.17v0c-.023.139-.055.276-.084.413a53.6,53.6,0,0,1-2.937,9.183q-.518,1.255-1.086,2.484c-.1.232-.212.462-.322.691h-.43l-.139-.32v0l-.163-.369-.02-.044-.009.044-.16.691h-4.154l-.807-.691-1.177-1.008,1.644-1.8.27-.3.041-.044.131-.142-.543-2.376,1.092-.18-1.2-3.692-.567-1.746-.142-.439-.828-2.553-2.5.468-.407-1.423a39.506,39.506,0,0,0,1.865-5.348c0-.014.009-.026.012-.041a41.128,41.128,0,0,0,1.168-15.094v0c-.017-.163-.038-.328-.061-.488v-.006a38.822,38.822,0,0,0-1.255-6.2c-.041-.154-.087-.305-.131-.456l.4.171,0,0h.006c.212.093.424.192.63.3a22.431,22.431,0,0,1,10.673,12.14l.017.041a28,28,0,0,1,1.909,8.549A33.364,33.364,0,0,1,903.906,667.606Z" transform="translate(-687.02 -487.312)" fill="#f0f0f0"/>
  <path id="Path_614" data-name="Path 614" d="M907.719,783.669h-.459c-.145-.235-.3-.465-.459-.691q-.375-.527-.773-1.031c-.229-.29-.459-.578-.688-.866s-.473-.6-.7-.906l.27-.3c.044.058.087.116.134.174.744.979,1.548,1.92,2.237,2.925C907.432,783.2,907.58,783.434,907.719,783.669Z" transform="translate(-698.372 -584.429)" fill="#fff"/>
  <path id="Path_615" data-name="Path 615" d="M893.695,642.717c.076.1.154.195.227.293q.85,1.1,1.606,2.275a34.259,34.259,0,0,1,2.388,4.314c.055.116.11.235.163.354a34.65,34.65,0,0,1,2.858,10.3c.006.035.009.067.012.1q.144,1.246.186,2.5a15.044,15.044,0,0,1-.462,4.683c-.058.2-.122.4-.192.59a7.943,7.943,0,0,1-.654,1.351,8.12,8.12,0,0,1-.622.9c-.136.174-.279.346-.43.511-.087.1-.177.192-.267.288-.076.073-.148.148-.224.221-.784.761-1.65,1.467-2.359,2.307l.142.439a23.559,23.559,0,0,1,2.356-2.339,11.016,11.016,0,0,0,1.354-1.534c.052-.076.107-.151.157-.23a7.774,7.774,0,0,0,.694-1.246c.1-.218.189-.442.27-.674a13.913,13.913,0,0,0,.639-4.648,30.044,30.044,0,0,0-.18-3.018c-.012-.131-.026-.259-.044-.389a35.611,35.611,0,0,0-5.6-15.2q-.719-1.094-1.525-2.135c-.07-.1-.142-.189-.218-.285C893.817,642.243,893.541,642.519,893.695,642.717Z" transform="translate(-690.576 -486.869)" fill="#fff"/>
  <path id="Path_616" data-name="Path 616" d="M918.968,691.5a5.234,5.234,0,0,0,4.317-5.225.2.2,0,0,0-.391,0,4.847,4.847,0,0,1-4.025,4.852c-.248.043-.147.42.1.378Z" transform="translate(-708.368 -517.88)" fill="#fff"/>
  <path id="Path_617" data-name="Path 617" d="M900.6,725.564a10.089,10.089,0,0,1-4.136-6.078c-.056-.245-.433-.146-.378.1A10.493,10.493,0,0,0,900.4,725.9C900.609,726.043,900.805,725.705,900.6,725.564Z" transform="translate(-692.3 -541.48)" fill="#fff"/>
  <path id="Path_618" data-name="Path 618" d="M901.218,666.244a2.963,2.963,0,0,1-2.793-.316c-.206-.144-.4.194-.2.337a3.32,3.32,0,0,0,3.09.357.2.2,0,0,0,.139-.238.2.2,0,0,0-.238-.139Z" transform="translate(-693.763 -503.556)" fill="#fff"/>
  <path id="Path_619" data-name="Path 619" d="M614.04,637.375h-2.964l-1.41-11.432h4.374Z" transform="translate(-432.559 -444.108)" fill="#9e616a"/>
  <path id="Path_620" data-name="Path 620" d="M799.722,773.74h-2.1l-.375-1.986-.961,1.986H790.7a1.254,1.254,0,0,1-.712-2.286l4.454-3.076v-2.007l4.685.28Z" transform="translate(-616.646 -574.846)" fill="#2f2e41"/>
  <path id="Path_621" data-name="Path 621" d="M704.788,632.934l-2.9.628-3.8-10.873,4.275-.927Z" transform="translate(-495.296 -441.141)" fill="#9e616a"/>
  <path id="Path_622" data-name="Path 622" d="M899.98,768.443l-2.055.446-.788-1.861-.519,2.144-5.451,1.183a1.254,1.254,0,0,1-1.181-2.083l3.7-3.951-.425-1.962,4.638-.72Z" transform="translate(-687.737 -571.489)" fill="#2f2e41"/>
  <path id="Path_623" data-name="Path 623" d="M787.042,790.894a.345.345,0,0,1-.346.346H705.273a.346.346,0,0,1,0-.691H786.7a.345.345,0,0,1,.346.346Z" transform="translate(-556.677 -591.999)" fill="#ccc"/>
  <path id="Path_624" data-name="Path 624" d="M785.067,539.2c2.08,11.431,2.6,16.367,2.6,16.367s-1.56,1.818-.52,2.859,0,3.117,0,3.117l2.339,25.2,1.882-.3,4.535-.729,1.636-.264L796.5,561.8s1.04-2.08.52-2.6.52-3.637.52-3.637l1.3-24.681,8.055,27.019s-.781,1.04,0,1.818,2.336,4.677,2.336,4.677l4.79,16.762.407,1.423,2.5-.468,2.719-.511.5-.093.889-.169.572-.107.195-.035.941-.177-.285-1.264-.148-.665-4.052-18-.093-.415-.1-.439a2.107,2.107,0,0,0-.258-2.08,2.03,2.03,0,0,1-.52-1.818.719.719,0,0,0,.07-.087,1.08,1.08,0,0,0,.186-.424,1.407,1.407,0,0,0-.517-1.307,2.216,2.216,0,0,1-.369-.529,18.29,18.29,0,0,1-1.188-4.665s-.7-25.1-3-28.936c-.122-.2-2.564-4.049-2.692-4.127-2.6-1.557-24.028.594-24.028.594s-1.226,3.292-1.281,3.635A58.567,58.567,0,0,0,785.067,539.2Z" transform="translate(-612.77 -396.995)" fill="#2f2e41"/>
  <path id="Path_625" data-name="Path 625" d="M777.487,541.682a2.488,2.488,0,0,0-.5-3.783l2.039-8.6-4.316,1.577-1.275,7.93a2.5,2.5,0,0,0,4.048,2.882Z" transform="translate(-605.069 -406.639)" fill="#9e616a"/>
  <path id="Path_626" data-name="Path 626" d="M789.9,372.533a55.467,55.467,0,0,1,6.345-7.392c2.227-.742,6.086-.31,7.424,0,6.187,8.166,6.576,7.624,8.186,12.187a6.426,6.426,0,0,1,.441,3.248c-.742,3.712.448,22.467.7,23.457s1.98,2.227.247,2.227-27.964-.99-27.469-1.732S789.9,372.533,789.9,372.533Z" transform="translate(-614.028 -289.881)" fill="#e6e7e8"/>
  <path id="Path_627" data-name="Path 627" d="M784.249,391.588h-2.475s-2.722,1.98-2.475,4.207-2.722,21.53-2.722,24-.99,3.217-.99,4.7.495,2.475,0,3.217a18.274,18.274,0,0,0-1.237,6.929,13.96,13.96,0,0,1,0,3.465h4.454s4.454-15.1,5.444-15.838a3.806,3.806,0,0,0,1.485-2.722c0-.742-.495-.742.742-1.732s.495-5.444.495-5.444l1.732-4.454Z" transform="translate(-605.906 -308.937)" fill="#e6e7e8"/>
  <circle id="Ellipse_79" data-name="Ellipse 79" cx="7.166" cy="7.166" r="7.166" transform="translate(176.261 57.76)" fill="#9e616a"/>
  <path id="Path_628" data-name="Path 628" d="M800.82,311.791l-.672-2.946a7.573,7.573,0,0,1,1.045-5.79,5.263,5.263,0,0,0,.162-5.37,4.13,4.13,0,0,0-3.6-2.267h-.179v-.179a4.417,4.417,0,0,1,3.864-4.487,1.973,1.973,0,0,1,1.106-1.395,7.936,7.936,0,0,1,6.927.105,2.183,2.183,0,0,1,1.348-1.786,2.153,2.153,0,0,1,1.177-.068,2.665,2.665,0,0,1,.749-1.717,3.157,3.157,0,0,1,2.8-.644,7.523,7.523,0,0,1,4.356,2.816,22.2,22.2,0,0,1,2.6,4.5,21.44,21.44,0,0,0,2.563,4.427,7.123,7.123,0,0,0,4.157,2.662,4.271,4.271,0,0,0,4.335-1.738l.162-.263.147.271a4.847,4.847,0,0,1-.892,5.5,6.586,6.586,0,0,1-5.393,1.836,10.555,10.555,0,0,1-5.307-2.236,7.943,7.943,0,0,1-3.2-4.292,11.637,11.637,0,0,1-.23-1.447,4.693,4.693,0,0,0-.857-2.691,4.379,4.379,0,0,0-2.209-1.122l-.152-.041a1.983,1.983,0,0,1-.845,1.44,1.43,1.43,0,0,1-.462.178c.9,3.609.528,6.372-1.1,8.215-2.743,3.11-8.013,2.47-8.236,2.442l-.148-.019-.008-.149a8.317,8.317,0,0,0-.147-1.194c-.755,1.819-3.294,6.628-3.634,7.113Z" transform="translate(-622.412 -233.436)" fill="#2f2e41"/>
</svg>
