<svg xmlns="http://www.w3.org/2000/svg" width="111.411" height="119.879" viewBox="0 0 111.411 119.879">
  <g id="choose" transform="translate(-0.004 0)">
    <path id="Path_263" data-name="Path 263" d="M381.675,207.052l-48.159,12.4a6.368,6.368,0,0,1-7.746-4.574L311.2,158.321a6.368,6.368,0,0,1,4.574-7.746l44.8-11.538,11.468,5.134,14.2,55.135a6.368,6.368,0,0,1-4.574,7.746Z" transform="translate(-310.999 -139.037)" fill="#f2f2f2"/>
    <path id="Path_264" data-name="Path 264" d="M323.9,160.444a4.535,4.535,0,0,0-3.257,5.516l14.565,56.559a4.535,4.535,0,0,0,5.516,3.257l48.159-12.4a4.535,4.535,0,0,0,3.257-5.516l-13.978-54.281-10.078-4.512Z" transform="translate(-318.668 -147.133)" fill="#fff"/>
    <path id="Path_265" data-name="Path 265" d="M579.1,145.1l-7.453,1.919a2.119,2.119,0,0,1-2.58-1.523l-1.418-5.5a.132.132,0,0,1,.182-.154l11.29,5.014a.132.132,0,0,1-.021.249Z" transform="translate(-518.175 -139.67)" fill="#f2f2f2"/>
    <path id="Path_266" data-name="Path 266" d="M509.365,409.032l-21.926,5.646a1.059,1.059,0,1,1-.528-2.052l21.926-5.646a1.059,1.059,0,0,1,.528,2.052Z" transform="translate(-452.357 -355.306)" fill="#ccc"/>
    <path id="Path_267" data-name="Path 267" d="M518.221,421.34l-26.158,6.736a1.059,1.059,0,1,1-.528-2.052l26.158-6.736a1.059,1.059,0,0,1,.528,2.052Z" transform="translate(-456.091 -365.241)" fill="#ccc"/>
    <circle id="Ellipse_44" data-name="Ellipse 44" cx="3.744" cy="3.744" r="3.744" transform="translate(22.388 58.685)" fill="#e6e6e6"/>
    <path id="Path_268" data-name="Path 268" d="M429.983,240.636l-29.12,7.5a3.281,3.281,0,0,1-3.99-2.357l-6.1-23.707a3.281,3.281,0,0,1,2.356-3.99l29.12-7.5a3.281,3.281,0,0,1,3.99,2.357l6.1,23.707A3.281,3.281,0,0,1,429.983,240.636Z" transform="translate(-375.307 -196.708)" fill="#fff"/>
    <path id="Path_269" data-name="Path 269" d="M429.983,240.636l-29.12,7.5a3.281,3.281,0,0,1-3.99-2.357l-6.1-23.707a3.281,3.281,0,0,1,2.356-3.99l29.12-7.5a3.281,3.281,0,0,1,3.99,2.357l6.1,23.707A3.281,3.281,0,0,1,429.983,240.636Zm-36.761-22.184a2.9,2.9,0,0,0-2.079,3.521l6.1,23.707a2.9,2.9,0,0,0,3.521,2.079l29.12-7.5a2.9,2.9,0,0,0,2.079-3.521l-6.1-23.707a2.9,2.9,0,0,0-3.521-2.079Z" transform="translate(-375.307 -196.708)" fill="#e6e6e6"/>
    <path id="Path_411" data-name="Path 411" d="M482.521,248l-14.7,3.783a.526.526,0,0,1-.638-.331.507.507,0,0,1,.357-.644l14.96-3.851c.6.306.445.932.017,1.043Z" transform="translate(-437.058 -226.158)" fill="#f2f2f2"/>
    <path id="Path_412" data-name="Path 412" d="M485.964,261.378l-14.7,3.783a.526.526,0,0,1-.638-.331.507.507,0,0,1,.357-.644l14.96-3.851c.6.306.445.933.017,1.043Z" transform="translate(-439.838 -236.954)" fill="#f2f2f2"/>
    <path id="Path_413" data-name="Path 413" d="M432.04,270.36l-4.485,1.155a.571.571,0,0,1-.695-.41l-1.363-5.293a.571.571,0,0,1,.41-.695l4.485-1.155a.571.571,0,0,1,.695.41l1.362,5.293A.571.571,0,0,1,432.04,270.36Z" transform="translate(-403.409 -239.868)" fill="#e6e6e6"/>
    <path id="Path_414" data-name="Path 414" d="M460.4,288.818l-22.43,5.774a.526.526,0,0,1-.638-.331.507.507,0,0,1,.357-.644l22.694-5.842C460.992,288.081,460.833,288.708,460.4,288.818Z" transform="translate(-412.963 -259.105)" fill="#f2f2f2"/>
    <path id="Path_415" data-name="Path 415" d="M463.849,302.2l-22.43,5.774a.526.526,0,0,1-.638-.331.507.507,0,0,1,.357-.644l22.694-5.842c.6.306.445.933.017,1.043Z" transform="translate(-415.743 -269.904)" fill="#f2f2f2"/>
    <path id="Path_416" data-name="Path 416" d="M467.29,315.565l-22.43,5.774a.526.526,0,0,1-.638-.331.507.507,0,0,1,.357-.644l22.694-5.842c.6.306.445.932.017,1.043Z" transform="translate(-418.521 -280.696)" fill="#f2f2f2"/>
    <path id="Path_417" data-name="Path 417" d="M470.734,328.942l-22.43,5.774a.526.526,0,0,1-.638-.331.507.507,0,0,1,.357-.644l22.694-5.842C471.321,328.205,471.162,328.831,470.734,328.942Z" transform="translate(-421.301 -291.495)" fill="#f2f2f2"/>
    <path id="Path_418" data-name="Path 418" d="M474.175,342.312l-22.43,5.774a.526.526,0,0,1-.638-.331.507.507,0,0,1,.357-.644l22.694-5.842c.6.306.445.933.017,1.043Z" transform="translate(-424.079 -302.288)" fill="#f2f2f2"/>
    <path id="Path_395" data-name="Path 395" d="M441.67,456.468a.388.388,0,0,1-.246-.017l0,0-1.02-.432a.391.391,0,0,1,.306-.72l.661.281.866-2.037a.391.391,0,0,1,.513-.207h0l-.005.013.005-.013a.391.391,0,0,1,.207.513l-1.019,2.4a.391.391,0,0,1-.263.225Z" transform="translate(-415.262 -392.727)" fill="#fff"/>
    <path id="Path_270" data-name="Path 270" d="M538.566,305.841H488.836a6.368,6.368,0,0,1-6.361-6.361v-58.4a6.368,6.368,0,0,1,6.361-6.361H535.1l9.825,7.831V299.48a6.368,6.368,0,0,1-6.361,6.361Z" transform="translate(-449.419 -216.273)" fill="#e6e6e6"/>
    <path id="Path_271" data-name="Path 271" d="M496.5,244.215a4.535,4.535,0,0,0-4.53,4.53v58.4a4.535,4.535,0,0,0,4.53,4.53h49.731a4.535,4.535,0,0,0,4.53-4.53V251.1l-8.635-6.882Z" transform="translate(-457.087 -223.941)" fill="#fff"/>
    <path id="Path_272" data-name="Path 272" d="M624.036,323.447H601.394a1.059,1.059,0,1,1,0-2.119h22.642a1.059,1.059,0,0,1,0,2.119Z" transform="translate(-544.561 -286.191)" fill="#019ba1"/>
    <path id="Path_273" data-name="Path 273" d="M628.4,341.994H601.394a1.059,1.059,0,1,1,0-2.119H628.4a1.059,1.059,0,1,1,0,2.119Z" transform="translate(-544.561 -301.163)" fill="#019ba1"/>
    <path id="Path_274" data-name="Path 274" d="M624.039,404.443H601.4a1.059,1.059,0,1,0,0,2.118h22.641a1.059,1.059,0,0,0,0-2.118Z" transform="translate(-544.564 -353.285)" fill="#ccc"/>
    <path id="Path_275" data-name="Path 275" d="M628.409,422.993H601.4a1.059,1.059,0,1,0,0,2.118h27.011a1.059,1.059,0,1,0,0-2.118Z" transform="translate(-544.564 -368.259)" fill="#ccc"/>
    <path id="Path_276" data-name="Path 276" d="M624.036,489.682H601.394a1.059,1.059,0,1,1,0-2.119h22.642a1.059,1.059,0,1,1,0,2.119Z" transform="translate(-544.561 -420.383)" fill="#ccc"/>
    <path id="Path_277" data-name="Path 277" d="M628.4,508.229H601.394a1.059,1.059,0,1,1,0-2.119H628.4a1.059,1.059,0,0,1,0,2.119Z" transform="translate(-544.561 -435.355)" fill="#ccc"/>
    <circle id="Ellipse_44-2" data-name="Ellipse 44" cx="3.744" cy="3.744" r="3.744" transform="translate(43.661 34.24)" fill="#019ba1"/>
    <path id="Path_395-2" data-name="Path 395" d="M549.668,331.581a.388.388,0,0,1-.234-.078l0,0-.88-.673a.391.391,0,1,1,.476-.621l.57.437,1.347-1.757a.391.391,0,0,1,.548-.072h0l-.008.012.009-.012a.391.391,0,0,1,.072.548l-1.584,2.066a.391.391,0,0,1-.311.152Z" transform="translate(-502.634 -292.169)" fill="#fff"/>
    <path id="Path_278" data-name="Path 278" d="M546.977,403.53a3.744,3.744,0,0,1-3.743,3.745.794.794,0,0,1-.1,0,3.744,3.744,0,1,1,3.84-3.741Z" transform="translate(-495.444 -349.525)" fill="#ccc"/>
    <circle id="Ellipse_44-3" data-name="Ellipse 44" cx="3.744" cy="3.744" r="3.744" transform="translate(43.661 66.283)" fill="#ccc"/>
    <path id="Path_279" data-name="Path 279" d="M764.377,243.418h-7.7a2.119,2.119,0,0,1-2.119-2.119v-5.685a.132.132,0,0,1,.215-.1l9.683,7.671a.132.132,0,0,1-.082.236Z" transform="translate(-669.06 -216.892)" fill="#ccc"/>
    <path id="Path_280" data-name="Path 280" d="M559.816,403.754a3.744,3.744,0,0,1-3.743,3.745.8.8,0,0,1-.1,0,8.105,8.105,0,0,1,.727-7.433A3.746,3.746,0,0,1,559.816,403.754Z" transform="translate(-508.282 -349.749)" fill="#019ba1"/>
    <path id="Path_281" data-name="Path 281" d="M600.334,405.5a1.062,1.062,0,0,1,1.06-1.06h5.642a8.01,8.01,0,0,1,.7,2.118h-6.338a1.06,1.06,0,0,1-1.06-1.058Z" transform="translate(-544.56 -353.285)" fill="#019ba1"/>
    <path id="Path_282" data-name="Path 282" d="M607.867,422.993a8.081,8.081,0,0,1-.281,2.118H601.4a1.059,1.059,0,1,1,0-2.118Z" transform="translate(-544.564 -368.259)" fill="#019ba1"/>
    <path id="Path_283" data-name="Path 283" d="M646.326,448.934a1.157,1.157,0,0,1-1.59.385l-13.494-8.231a1.157,1.157,0,0,1,1.2-1.975l13.494,8.231A1.157,1.157,0,0,1,646.326,448.934Z" transform="translate(-569.063 -381.136)" fill="#3f3d56"/>
    <path id="Path_284" data-name="Path 284" d="M569.978,389.139a9.252,9.252,0,1,1-3.081-12.717,9.252,9.252,0,0,1,3.081,12.717Zm-13.823-8.431a6.939,6.939,0,1,0,9.538-2.311,6.939,6.939,0,0,0-9.538,2.311Z" transform="translate(-506.209 -329.572)" fill="#3f3d56"/>
    <circle id="Ellipse_21" data-name="Ellipse 21" cx="4.734" cy="4.734" r="4.734" transform="translate(88.678 46.765)" fill="#ffb8b8"/>
    <path id="Path_285" data-name="Path 285" d="M793.59,467.592a2.121,2.121,0,0,1,1.6-2.728,2.019,2.019,0,0,1,.281-.035l4.987-8-4.555-4.331a1.818,1.818,0,1,1,2.529-2.612l6.289,6.2.013.015a1.647,1.647,0,0,1-.115,1.963l-6.987,8.264a1.964,1.964,0,0,1,.052.2,2.121,2.121,0,0,1-1.9,2.528q-.09.008-.18.008A2.127,2.127,0,0,1,793.59,467.592Z" transform="translate(-700.483 -389.553)" fill="#ffb8b8"/>
    <path id="Path_286" data-name="Path 286" d="M429.546,570.827h-2.363l-1.124-9.115h3.488Z" transform="translate(-343.931 -453.44)" fill="#ffb8b8"/>
    <path id="Path_287" data-name="Path 287" d="M726.366,747.1h-7.62V747a2.966,2.966,0,0,1,2.966-2.966h4.654Z" transform="translate(-640.148 -627.419)" fill="#2f2e41"/>
    <path id="Path_288" data-name="Path 288" d="M533.928,559.251,531.9,560.46l-5.629-7.256,3-1.784Z" transform="translate(-424.824 -445.131)" fill="#ffb8b8"/>
    <path id="Path_289" data-name="Path 289" d="M856.4,728.68l-6.547,3.9-.049-.083a2.966,2.966,0,0,1,1.031-4.066h0l4-2.381Z" transform="translate(-745.603 -612.9)" fill="#2f2e41"/>
    <path id="Path_290" data-name="Path 290" d="M730.468,546.812c-1.583-18.641-2.525-35.957,3.262-43.021l.045-.055,9.739,3.9.016.035c.033.072,3.272,7.2,2.516,11.988l2.4,11.05,7.833,13.115a.868.868,0,0,1-.4,1.239l-3.4,1.5a.872.872,0,0,1-1.089-.34l-8.521-13.894-4.813-10.657a.289.289,0,0,0-.551.089l-2.668,25.077a.866.866,0,0,1-.862.776h-2.646A.873.873,0,0,1,730.468,546.812Z" transform="translate(-648.638 -433.439)" fill="#2f2e41"/>
    <path id="Path_291" data-name="Path 291" d="M751.857,451.744l-.046-.022-.007-.051a16.449,16.449,0,0,1,1.28-8.409,6.676,6.676,0,0,1,7.749-4h0a6.668,6.668,0,0,1,4.252,3.27,6.6,6.6,0,0,1,.457,5.286c-1.529,4.472-3.513,8.656-3.533,8.7l-.042.087Z" transform="translate(-666.732 -381.245)" fill="#019ba1"/>
    <path id="Path_292" data-name="Path 292" d="M694.107,454.26a2.121,2.121,0,0,1,3.117.547,2.021,2.021,0,0,1,.131.251l9.243,1.868,2.461-5.783a1.818,1.818,0,1,1,3.333,1.454l-3.607,8.063-.01.017a1.647,1.647,0,0,1-1.879.58l-10.188-3.651a2,2,0,0,1-.171.119,2.121,2.121,0,0,1-3.035-.9q-.039-.082-.07-.166A2.127,2.127,0,0,1,694.107,454.26Z" transform="translate(-619.607 -390.102)" fill="#ffb8b8"/>
    <path id="Path_293" data-name="Path 293" d="M788.666,383.363a3.86,3.86,0,0,0-2-1.847,6.505,6.505,0,0,0-3.529.3,6.538,6.538,0,0,1-2.743.162,3.08,3.08,0,0,1-2.191-1.531c-.606-1.215-.1-2.664-.132-4.021a4.883,4.883,0,0,0-6.153-4.59c-1.117-.322-2.128-.352-2.819.506a3.277,3.277,0,0,0-3.277,3.277h3.133a3.113,3.113,0,0,0,.473,2.3c.553.813,1.515,1.4,1.7,2.366a3.023,3.023,0,0,1-1.124,2.5,5.2,5.2,0,0,0-1.649,2.283,2.831,2.831,0,0,0,.405,2.036,6.631,6.631,0,0,0,1.424,1.568,20.894,20.894,0,0,0,8.681,4.441,10.319,10.319,0,0,0,6.818-.315,6.771,6.771,0,0,0,2.981-9.439Z" transform="translate(-678.151 -326.795)" fill="#2f2e41"/>
    <path id="Path_294" data-name="Path 294" d="M733.817,759.349H697.194a.193.193,0,0,1,0-.385h36.623a.193.193,0,0,1,0,.385Z" transform="translate(-622.594 -639.47)" fill="#ccc"/>
  </g>
</svg>
