<svg xmlns="http://www.w3.org/2000/svg" width="339.665" height="345.002" viewBox="0 0 339.665 345.002">
  <g id="Group_64" data-name="Group 64" transform="translate(-1467.545 -275.496)">
    <path id="Path_486" data-name="Path 486" d="M493.333,439.757c-13.483-23.717-39.2-41.928-66.425-40.174A125.7,125.7,0,0,1,459.966,479.3c.447,11.433-.246,24.2,7.345,32.757,4.723,5.327,11.943,7.907,19.042,8.448s14.2-.741,21.2-2.019l1.7.522C509.9,491.733,506.815,463.475,493.333,439.757Z" transform="translate(1095.285 69.756)" fill="#f0f0f0"/>
    <path id="Path_487" data-name="Path 487" d="M427.24,399.43a107.44,107.44,0,0,1,47.837,45.618,46.268,46.268,0,0,1,5.064,13.583,26.536,26.536,0,0,1-1.381,13.9c-1.5,4.159-3.507,8.239-3.965,12.689a16.248,16.248,0,0,0,4.349,12.556c3.8,4.258,8.905,6.9,13.986,9.3,5.642,2.673,11.544,5.359,15.54,10.347.484.6,1.394-.182.91-.786-6.952-8.678-18.853-10.31-27.1-17.3-3.851-3.262-6.742-7.7-6.559-12.91.16-4.552,2.23-8.761,3.781-12.959a28.316,28.316,0,0,0,1.856-13.538A42.77,42.77,0,0,0,477.03,446.2a104.233,104.233,0,0,0-19.168-26.342,109.344,109.344,0,0,0-30.233-21.571c-.7-.335-1.08.805-.389,1.138Z" transform="translate(1094.912 70.48)" fill="#fff"/>
    <path id="Path_488" data-name="Path 488" d="M503.139,466.237a16.119,16.119,0,0,0,4.864-20.3c-.352-.689-1.439-.174-1.087.516a14.926,14.926,0,0,1-4.563,18.872C501.727,465.78,502.516,466.688,503.139,466.237Z" transform="translate(1063.762 42.695)" fill="#fff"/>
    <path id="Path_489" data-name="Path 489" d="M518.656,556.812A31.068,31.068,0,0,1,498.985,545.6c-.486-.6-1.4.184-.91.786a32.315,32.315,0,0,0,20.493,11.626c.767.11.851-1.09.088-1.2Z" transform="translate(1056.052 -15.812)" fill="#fff"/>
    <path id="Path_490" data-name="Path 490" d="M581.3,432.48a9.124,9.124,0,0,1-8.155,2.907c-.766-.12-.849,1.08-.088,1.2a10.224,10.224,0,0,0,9.029-3.2.621.621,0,0,0,.062-.848A.6.6,0,0,0,581.3,432.48Z" transform="translate(962.11 50.481)" fill="#fff"/>
    <path id="Path_491" data-name="Path 491" d="M424.369,559.466c.476.088.952.177,1.432.274a120.155,120.155,0,0,1,18.787,5.193c.475.165.954.34,1.424.519A126.674,126.674,0,0,1,485.853,589.7a123.017,123.017,0,0,1,12.9,13.522c5.458,6.668,10.845,14.332,17.977,18.68a21.111,21.111,0,0,0,2.3,1.245L560.115,606.1c.074-.086.152-.162.227-.248l1.672-.605c-.186-.263-.385-.532-.572-.8-.108-.153-.224-.3-.332-.456-.075-.1-.15-.2-.211-.3-.025-.034-.05-.067-.071-.092-.062-.1-.129-.177-.186-.263q-1.663-2.26-3.363-4.5c0-.009,0-.009-.017-.015-8.665-11.38-18.356-22.137-29.372-31.081-.332-.269-.667-.548-1.017-.809A117.391,117.391,0,0,0,511.006,556.2a103.812,103.812,0,0,0-9.412-4.654,86.3,86.3,0,0,0-26.145-6.668c-17.963-1.668-36.259,2.427-50.036,13.712C425.061,558.882,424.717,559.168,424.369,559.466Z" transform="translate(1043.654 -15.308)" fill="#f0f0f0"/>
    <path id="Path_492" data-name="Path 492" d="M426.537,577.2a107.438,107.438,0,0,1,65.661,7.623,46.269,46.269,0,0,1,12.221,7.8,26.536,26.536,0,0,1,7.265,11.927c1.31,4.221,2.161,8.69,4.473,12.519a16.248,16.248,0,0,0,11.032,7.407c5.6,1.112,11.263.146,16.769-.992,6.114-1.263,12.444-2.671,18.638-1.094.75.191,1-.985.254-1.175-10.776-2.744-21.26,3.119-32.058,2.505-5.039-.286-10.021-2.093-13.01-6.358-2.613-3.73-3.494-8.338-4.784-12.623a28.315,28.315,0,0,0-6.669-11.927,42.771,42.771,0,0,0-11.876-8.237,104.232,104.232,0,0,0-31.164-9.492,109.343,109.343,0,0,0-37.126.979c-.757.151-.378,1.293.374,1.143Z" transform="translate(1041.794 -32.559)" fill="#fff"/>
    <path id="Path_493" data-name="Path 493" d="M620.775,564.784a16.119,16.119,0,0,0-8.337-19.135c-.7-.338-1.254.727-.557,1.066A14.926,14.926,0,0,1,619.6,564.53C619.372,565.27,620.549,565.52,620.775,564.784Z" transform="translate(906.781 -15.929)" fill="#fff"/>
    <path id="Path_494" data-name="Path 494" d="M572.372,642.439a31.068,31.068,0,0,1-22.456,2.891c-.751-.188-1,.987-.254,1.175a32.315,32.315,0,0,0,23.362-3.056C573.7,643.075,573.047,642.067,572.372,642.439Z" transform="translate(980.724 -72.679)" fill="#fff"/>
    <path id="Path_495" data-name="Path 495" d="M698.579,575.4a9.124,9.124,0,0,1-4.761,7.231c-.683.366-.027,1.374.652,1.01a10.224,10.224,0,0,0,5.284-7.988.621.621,0,0,0-.461-.714A.6.6,0,0,0,698.579,575.4Z" transform="translate(794.58 -33.138)" fill="#fff"/>
    <path id="Path_496" data-name="Path 496" d="M126.835,547.284c5.754-27.821,12.946-37.1,12.946-37.1l2.748-2.131,3.3-2.567-.016-.33.784-.266.184-.143.3-.232.048.052.1.106,14.952-5.082,18.969-6.443,8.784-11.418a15.193,15.193,0,0,1,12.154-5.928l28.053.208a15.193,15.193,0,0,1,10.22,4.054l18.439,17.1,28.732,13.722.049-.049.3.216,4.439,2.123-.183.954,2.748,1.983s7.192,8.631,12.946,34.518c1.464,6.587,2.184,20.717,2.444,38.128a6.646,6.646,0,0,1-6.643,6.745H131.027a6.647,6.647,0,0,1-6.643-6.738C124.638,569.824,125.358,554.427,126.835,547.284Z" transform="translate(1419.452 24.99)" fill="#3f3d56"/>
    <circle id="ab6171fa-7d69-4734-b81c-8dff60f9761b" cx="36.753" cy="36.753" r="36.753" transform="translate(1594.417 416.751)" fill="#ffb9b9"/>
    <path id="Path_499" data-name="Path 499" d="M338.836,444.5q.236-.519.47-1.041c-.06,0-.12.011-.18.012Z" transform="translate(1301.736 43.959)" fill="#2f2e41"/>
    <path id="Path_500" data-name="Path 500" d="M321.749,251.94c-1.859-1.483-4.031-2.847-6.408-2.771s-4.787,2.223-4.294,4.549A37.768,37.768,0,0,0,265.6,236.675c-5.907,2.084-11.7,6.253-13.056,12.368-.348,1.57-.423,3.291-1.4,4.565-1.236,1.607-3.6,1.971-5.547,1.405l-.058-.017a1.736,1.736,0,0,0-2.1,2.451l1.671,3.117a13.394,13.394,0,0,1-6.381-.136,1.735,1.735,0,0,0-1.842,2.7,30.242,30.242,0,0,0,24.114,12.395c6.678-.041,13.424-2.342,19.923-.807a17.306,17.306,0,0,1,11.64,24.294c2-2.184,5.856-1.667,7.9.474s2.571,5.337,2.365,8.289c-.315,4.515-2.083,8.769-3.948,12.909,15.634-.492,30.421-11.459,35.4-26.293C339.27,279.5,334.032,261.737,321.749,251.94Z" transform="translate(1347.195 166.483)" fill="#2f2e41"/>
    <path id="Path_501" data-name="Path 501" d="M103.957,495.253,93.649,551.338l-6.185.538Z" transform="translate(1589.606 68.621)" opacity="0.2"/>
    <path id="Path_502" data-name="Path 502" d="M322.128,485.026,332.436,545.3l6.185.579Z" transform="translate(1257.887 74.618)" opacity="0.2"/>
    <path id="Path_503" data-name="Path 503" d="M20.717,40.5a3.664,3.664,0,0,1-4.9-2.15,3.721,3.721,0,0,1,1.95-5.076,3.655,3.655,0,0,1,4.926,2.2A3.651,3.651,0,0,1,20.717,40.5ZM16.931,29.137l-1.572.656A1.7,1.7,0,0,1,13.206,29l-.078-.152c-1.691-3.05-1.885-6.756-.572-11.01,1.216-3.816,1.72-6.5.705-8.932C12.087,6.1,9.581,5.218,6.384,6.494a5.843,5.843,0,0,0-2.61,1.477,2.24,2.24,0,0,1-1.622.659A2.165,2.165,0,0,1,.6,7.95,2.212,2.212,0,0,1,.587,4.932,17.178,17.178,0,0,1,6.4.944C13.265-1.924,16.722,2.31,18.3,6.1c1.548,3.706.677,7.145-.722,11.6-1.172,3.7-1.1,6.443.228,9.169a1.688,1.688,0,0,1-.879,2.271Z" transform="translate(1669.982 356.024) rotate(31)" fill="#019ba1"/>
    <g id="Group_63" data-name="Group 63" transform="translate(1594.417 275.496)">
      <path id="Path_497" data-name="Path 497" d="M751.4,191.732a22.512,22.512,0,1,1,0,45.024H583.629a22.512,22.512,0,1,1,0-45.024Z" transform="translate(-561.117 -191.732)" fill="#e5e5e5"/>
      <path id="Path_498" data-name="Path 498" d="M757.857,202.747a17.956,17.956,0,1,1,0,35.912H590.089a17.956,17.956,0,1,1,0-35.912Z" transform="translate(-567.577 -198.191)" fill="#fff"/>
      <path id="Path_504" data-name="Path 504" d="M623.3,269.842h33.379a.8.8,0,0,0,0-1.608H623.3a.8.8,0,1,0,0,1.608Z" transform="translate(-470.079 -236.594)" fill="#019ba1"/>
      <path id="Path_505" data-name="Path 505" d="M725.683,270.49h33.379a.8.8,0,1,0,0-1.608H725.683a.8.8,0,1,0,0,1.608Z" transform="translate(-614.804 -236.974)" fill="#019ba1"/>
      <path id="Path_506" data-name="Path 506" d="M828.065,271.138h33.379a.8.8,0,0,0,0-1.608H828.065a.8.8,0,1,0,0,1.608Z" transform="translate(-759.53 -237.354)" fill="#019ba1"/>
      <path id="Path_507" data-name="Path 507" d="M930.443,271.786h33.379a.8.8,0,0,0,0-1.608H930.443a.8.8,0,1,0,0,1.608Z" transform="translate(-904.25 -237.734)" fill="#019ba1"/>
      <circle id="Ellipse_58" data-name="Ellipse 58" cx="6.204" cy="6.204" r="6.204" transform="translate(163.782 13.441)" fill="#019ba1"/>
      <circle id="Ellipse_59" data-name="Ellipse 59" cx="6.204" cy="6.204" r="6.204" transform="translate(121.182 13.441)" fill="#019ba1"/>
      <circle id="Ellipse_60" data-name="Ellipse 60" cx="6.204" cy="6.204" r="6.204" transform="translate(78.583 13.441)" fill="#019ba1"/>
      <circle id="Ellipse_61" data-name="Ellipse 61" cx="6.204" cy="6.204" r="6.204" transform="translate(35.984 13.441)" fill="#019ba1"/>
    </g>
  </g>
</svg>
