<svg xmlns="http://www.w3.org/2000/svg" width="29.507" height="30.148" viewBox="0 0 29.507 30.148">
  <g id="Google__G__Logo" transform="translate(26.754 -39.239)">
    <path id="Path_3" data-name="Path 3" d="M-.321,52.09a17.464,17.464,0,0,0-.239-2.851H-14.754V54.9h8.127a7,7,0,0,1-3.015,4.5V63.17h4.849A14.738,14.738,0,0,0-.321,52.09Z" transform="translate(3.074 2.562)" fill="#4285f4"/>
    <path id="Path_4" data-name="Path 4" d="M-12.011,65.726a14.359,14.359,0,0,0,9.961-3.655L-6.9,58.3a9.093,9.093,0,0,1-5.113,1.457,9,9,0,0,1-8.454-6.231h-5v3.882A15.051,15.051,0,0,0-12.011,65.726Z" transform="translate(0.33 3.66)" fill="#34a853"/>
    <path id="Path_5" data-name="Path 5" d="M-20.134,55.494a8.747,8.747,0,0,1-.477-2.877,9.088,9.088,0,0,1,.477-2.877V45.859h-5a14.9,14.9,0,0,0-1.62,6.758,14.9,14.9,0,0,0,1.62,6.758Z" transform="translate(0 1.696)" fill="#fbbc05"/>
    <path id="Path_6" data-name="Path 6" d="M-12.011,45.206a8.178,8.178,0,0,1,5.778,2.261l4.3-4.3a14.412,14.412,0,0,0-10.074-3.932,15.051,15.051,0,0,0-13.453,8.316l5,3.882A9,9,0,0,1-12.011,45.206Z" transform="translate(0.33 0)" fill="#ea4335"/>
  </g>
</svg>
