<svg id="homecolor" xmlns="http://www.w3.org/2000/svg" width="27.772" height="22.353" viewBox="0 0 27.772 22.353">
  <path id="Path_629" data-name="Path 629" d="M134.285,95.2a1.187,1.187,0,0,0-.624.212l-12.87,10.16a1.213,1.213,0,0,0-.222,1.471,1.052,1.052,0,0,0,1.471.127l12.245-9.662,12.245,9.662a1.04,1.04,0,0,0,1.471-.127,1.153,1.153,0,0,0-.222-1.471l-12.87-10.16a1.034,1.034,0,0,0-.624-.212Zm-8.128,9.917-2.032,1.609v9.811h0a1.016,1.016,0,0,0,1.016,1.016h6.435a1.016,1.016,0,0,0,1.016-1.016v-4.064a1.693,1.693,0,0,1,3.387,0v4.064a1.016,1.016,0,0,0,1.016,1.016h6.435a1.016,1.016,0,0,0,1.016-1.016v-9.811l-2.032-1.609v10.4h-4.4v-3.048a3.726,3.726,0,1,0-7.451,0v3.048h-4.4v-10.4Z" transform="translate(-120.401 -95.2)" fill="#019ba1"/>
</svg>
