<svg id="input" xmlns="http://www.w3.org/2000/svg" width="24.977" height="16.651" viewBox="0 0 24.977 16.651">
  <path id="Icon_awesome-keyboard" data-name="Icon awesome-keyboard" d="M22.9,21.151H2.081A2.081,2.081,0,0,1,0,19.07V6.581A2.081,2.081,0,0,1,2.081,4.5H22.9a2.081,2.081,0,0,1,2.081,2.081V19.07A2.081,2.081,0,0,1,22.9,21.151ZM5.55,9.53V7.8a.52.52,0,0,0-.52-.52H3.3a.52.52,0,0,0-.52.52V9.53a.52.52,0,0,0,.52.52H5.03A.52.52,0,0,0,5.55,9.53Zm4.163,0V7.8a.52.52,0,0,0-.52-.52H7.458a.52.52,0,0,0-.52.52V9.53a.52.52,0,0,0,.52.52H9.193A.52.52,0,0,0,9.713,9.53Zm4.163,0V7.8a.52.52,0,0,0-.52-.52H11.621a.52.52,0,0,0-.52.52V9.53a.52.52,0,0,0,.52.52h1.734A.52.52,0,0,0,13.876,9.53Zm4.163,0V7.8a.52.52,0,0,0-.52-.52H15.784a.52.52,0,0,0-.52.52V9.53a.52.52,0,0,0,.52.52h1.734A.52.52,0,0,0,18.039,9.53Zm4.163,0V7.8a.52.52,0,0,0-.52-.52H19.947a.52.52,0,0,0-.52.52V9.53a.52.52,0,0,0,.52.52h1.734A.52.52,0,0,0,22.2,9.53ZM7.632,13.693V11.958a.52.52,0,0,0-.52-.52H5.377a.52.52,0,0,0-.52.52v1.734a.52.52,0,0,0,.52.52H7.111A.52.52,0,0,0,7.632,13.693Zm4.163,0V11.958a.52.52,0,0,0-.52-.52H9.54a.52.52,0,0,0-.52.52v1.734a.52.52,0,0,0,.52.52h1.734A.52.52,0,0,0,11.794,13.693Zm4.163,0V11.958a.52.52,0,0,0-.52-.52H13.7a.52.52,0,0,0-.52.52v1.734a.52.52,0,0,0,.52.52h1.734A.52.52,0,0,0,15.957,13.693Zm4.163,0V11.958a.52.52,0,0,0-.52-.52H17.865a.52.52,0,0,0-.52.52v1.734a.52.52,0,0,0,.52.52H19.6A.52.52,0,0,0,20.12,13.693ZM5.55,17.856V16.121a.52.52,0,0,0-.52-.52H3.3a.52.52,0,0,0-.52.52v1.734a.52.52,0,0,0,.52.52H5.03A.52.52,0,0,0,5.55,17.856Zm12.488,0V16.121a.52.52,0,0,0-.52-.52H7.458a.52.52,0,0,0-.52.52v1.734a.52.52,0,0,0,.52.52h10.06A.52.52,0,0,0,18.039,17.856Zm4.163,0V16.121a.52.52,0,0,0-.52-.52H19.947a.52.52,0,0,0-.52.52v1.734a.52.52,0,0,0,.52.52h1.734A.52.52,0,0,0,22.2,17.856Z" transform="translate(0 -4.5)" fill="#666"/>
</svg>
