<svg xmlns="http://www.w3.org/2000/svg" width="26.159" height="26.164" viewBox="0 0 26.159 26.164">
  <path id="language" d="M17.751,8.581C16.986,3.87,15.182.563,13.082.563S9.179,3.87,8.414,8.581ZM8.018,13.645a33.064,33.064,0,0,0,.174,3.376h9.775a33.064,33.064,0,0,0,.174-3.376,33.064,33.064,0,0,0-.174-3.376H8.192A33.064,33.064,0,0,0,8.018,13.645ZM25.146,8.581a13.11,13.11,0,0,0-8.335-7.47,17.8,17.8,0,0,1,2.638,7.47Zm-15.8-7.47a13.1,13.1,0,0,0-8.329,7.47h5.7a17.732,17.732,0,0,1,2.632-7.47Zm16.363,9.158H19.66c.111,1.108.174,2.242.174,3.376s-.063,2.268-.174,3.376h6.045a12.969,12.969,0,0,0,.454-3.376A13.2,13.2,0,0,0,25.711,10.269ZM6.33,13.645c0-1.134.063-2.268.174-3.376H.454a12.789,12.789,0,0,0,0,6.752H6.5C6.393,15.913,6.33,14.779,6.33,13.645Zm2.084,5.064c.765,4.711,2.569,8.018,4.668,8.018s3.9-3.307,4.668-8.018Zm8.4,7.47a13.122,13.122,0,0,0,8.335-7.47h-5.7a17.8,17.8,0,0,1-2.638,7.47Zm-15.8-7.47a13.11,13.11,0,0,0,8.335,7.47,17.8,17.8,0,0,1-2.638-7.47h-5.7Z" transform="translate(0 -0.563)" fill="#666"/>
</svg>
