<svg id="Component_1_1" data-name="Component 1 – 1" xmlns="http://www.w3.org/2000/svg" width="302.608" height="236.782" viewBox="0 0 302.608 236.782">
  <path id="Path_421" data-name="Path 421" d="M445.067,701.63c15.3-12.927,24.591-33.348,22.154-53.228s-17.531-38.156-37.11-42.378-41.9,7.464-47.844,26.59c-3.273-36.873-7.044-75.292-26.648-106.693-17.751-28.433-48.5-48.778-81.818-52.418s-68.4,10.107-89.185,36.407S158.747,574.445,173.3,604.64c10.722,22.243,30.475,38.8,51.172,52.264,66.029,42.965,147.939,60.884,225.877,49.414" transform="translate(-165 -472.927)" fill="#f2f2f2"/>
  <path id="Path_422" data-name="Path 422" d="M217.567,484.373a540.35,540.35,0,0,1,75.3,74.777,548.077,548.077,0,0,1,59.386,87.891,545.843,545.843,0,0,1,25.43,53.846c1.527,3.743-4.55,5.372-6.06,1.671a536.355,536.355,0,0,0-49.009-92.727,539.729,539.729,0,0,0-65.729-81.2,538.459,538.459,0,0,0-43.766-39.815c-3.138-2.555,1.332-6.978,4.444-4.444Z" transform="translate(-165 -472.927)" fill="#fff"/>
</svg>
