<svg id="otherserv" xmlns="http://www.w3.org/2000/svg" width="293.263" height="154.995" viewBox="0 0 293.263 154.995">
  <path id="Path_295" data-name="Path 295" d="M905.021,464.04a178.1,178.1,0,0,0,22.885-1.679c.266-.037.533-.077.8-.114l-.4-71.7c-.265-.211-.532-.418-.8-.618-.9-.669-1.818-1.3-2.772-1.873-4.595-2.768-9.975-4.036-13.686-2.766l-.058.023a6.513,6.513,0,0,0-2.209,1.271c-3.259,2.9-2.716,8.75-.085,14.063-5.216-4.765-11.8-8.56-17.673-8.848-5.731-.283-9.824,2.714-13.3,5.964-.115.107-.227.213-.339.32-.057.052-.112.107-.169.158-2.651,2.536-5.265,5.492-4.949,9.771.347,4.693,4.278,9.9,8.859,13.544s9.777,6.073,14.852,8.53,10.273,5.123,14.608,9.071c-6.764-5.348-14.46-9.659-21.945-11.252s-14.674-.191-18.2,4.575a11.148,11.148,0,0,0-1.97,4.883c-.034.206-.062.414-.087.627-.5,4.412,1.024,9.68,4.672,14.162a32.6,32.6,0,0,0,15.622,10.061A53.282,53.282,0,0,0,905.021,464.04Z" transform="translate(-868.227 -328.237)" fill="#f2f2f2"/>
  <path id="Path_296" data-name="Path 296" d="M886.517,419l-.008-1.371q-.408-.653-.807-1.312c-.172-.272-.337-.547-.506-.823q-4.166-6.822-7.993-13.729T869.9,387.891a.575.575,0,0,0-.657-.33.164.164,0,0,0-.048.023c-.122.065-.172.21-.068.421.286.57.572,1.143.864,1.713q3.536,6.989,7.425,13.918t8.118,13.77c.058.1.12.192.178.288C885.979,418.129,886.248,418.561,886.517,419Z" transform="translate(-826.292 -330.104)" fill="#fff"/>
  <path id="Path_297" data-name="Path 297" d="M919.939,462.191l0-.848c-.268-.191-.535-.379-.8-.57l-18.9-13.475q-15.471-11.031-30.943-22.056a.546.546,0,0,0-.187-.1c-.228-.063-.362.1-.339.32a.644.644,0,0,0,.285.448l17.346,12.366,30.785,21.945,1.957,1.4C919.4,461.812,919.671,462,919.939,462.191Z" transform="translate(-859.615 -355.621)" fill="#fff"/>
  <path id="Path_298" data-name="Path 298" d="M923.838,564.816c1.429-.043,2.835-.138,4.228-.261l.8-.072,0-.89c-.266.027-.533.054-.8.078-2.012.188-4.048.321-6.138.339a85.628,85.628,0,0,1-17.261-1.686,107.472,107.472,0,0,1-17.933-5.221,123.161,123.161,0,0,1-17.742-8.543.474.474,0,0,0-.315-.079c-.254.037-.329.374-.086.627a.737.737,0,0,0,.161.128q1.058.616,2.123,1.209a123.063,123.063,0,0,0,17.8,8.176,106.962,106.962,0,0,0,17.96,4.868A84.486,84.486,0,0,0,923.838,564.816Z" transform="translate(-868.438 -439.357)" fill="#fff"/>
  <path id="Path_299" data-name="Path 299" d="M249.18,208.674H444.107a2.8,2.8,0,0,1,2.8,2.8V343.562a2.8,2.8,0,0,1-2.8,2.8H249.18a2.8,2.8,0,0,1-2.129-.983.657.657,0,0,1-.061-.077,2.622,2.622,0,0,1-.4-.678,2.732,2.732,0,0,1-.212-1.063V211.474A2.8,2.8,0,0,1,249.18,208.674Zm-2,134.888a1.984,1.984,0,0,0,.331,1.1,2.07,2.07,0,0,0,.758.681,1.986,1.986,0,0,0,.915.222H444.107a2,2,0,0,0,2-2V211.474a2,2,0,0,0-2-2H249.18a2,2,0,0,0-2,2Z" transform="translate(-186.716 -208.674)" fill="#3f3d56"/>
  <rect id="Rectangle_34" data-name="Rectangle 34" width="199.73" height="0.801" transform="translate(60.062 11.223)" fill="#3f3d56"/>
  <ellipse id="Ellipse_22" data-name="Ellipse 22" cx="2.402" cy="2.402" rx="2.402" ry="2.402" transform="translate(250.586 3.602)" fill="#3f3d56"/>
  <ellipse id="Ellipse_23" data-name="Ellipse 23" cx="2.402" cy="2.402" rx="2.402" ry="2.402" transform="translate(243.682 3.602)" fill="#3f3d56"/>
  <ellipse id="Ellipse_24" data-name="Ellipse 24" cx="2.402" cy="2.402" rx="2.402" ry="2.402" transform="translate(236.777 3.602)" fill="#3f3d56"/>
  <path id="Path_300" data-name="Path 300" d="M393.871,283.675H494.064a4.175,4.175,0,1,0,0-8.349H393.871a4.175,4.175,0,0,0,0,8.349Zm100.193-7.707a3.532,3.532,0,0,1,0,7.065H393.871a3.532,3.532,0,1,1,0-7.065Z" transform="translate(-284.072 -253.922)" fill="#3f3d56"/>
  <path id="Path_301" data-name="Path 301" d="M371.871,369.964h8.992a2.569,2.569,0,0,0,0-5.138h-8.992a2.569,2.569,0,0,0,0,5.138Z" transform="translate(-162.716 -314.681)" fill="#ccc"/>
  <path id="Path_302" data-name="Path 302" d="M371.871,396.964H391.46a2.569,2.569,0,0,0,0-5.138H371.871a2.569,2.569,0,1,0,0,5.138Z" transform="translate(-173.313 -333.01)" fill="#ccc"/>
  <path id="Path_303" data-name="Path 303" d="M376.871,487.964h8.992a2.569,2.569,0,0,0,0-5.138h-8.992a2.569,2.569,0,0,0,0,5.138Z" transform="translate(-169.321 -394.787)" fill="#ccc"/>
  <path id="Path_304" data-name="Path 304" d="M376.871,514.964H396.46a2.569,2.569,0,0,0,0-5.138H376.871a2.569,2.569,0,1,0,0,5.138Z" transform="translate(-179.919 -413.116)" fill="#ccc"/>
  <path id="Path_305" data-name="Path 305" d="M560.871,484.964h8.992a2.569,2.569,0,0,0,0-5.138h-8.992a2.569,2.569,0,1,0,0,5.138Z" transform="translate(-412.41 -392.75)" fill="#ccc"/>
  <path id="Path_306" data-name="Path 306" d="M560.871,511.964H580.46a2.569,2.569,0,1,0,0-5.138H560.871a2.569,2.569,0,0,0,0,5.138Z" transform="translate(-423.007 -411.08)" fill="#ccc"/>
  <path id="Path_307" data-name="Path 307" d="M557.871,374.964h8.992a2.569,2.569,0,0,0,0-5.138h-8.992a2.569,2.569,0,1,0,0,5.138Z" transform="translate(-408.446 -318.075)" fill="#ccc"/>
  <path id="Path_308" data-name="Path 308" d="M557.871,401.964H577.46a2.569,2.569,0,1,0,0-5.138H557.871a2.569,2.569,0,0,0,0,5.138Z" transform="translate(-419.044 -336.404)" fill="#ccc"/>
  <path id="Path_309" data-name="Path 309" d="M744.871,368.964h8.992a2.569,2.569,0,0,0,0-5.138h-8.992a2.569,2.569,0,0,0,0,5.138Z" transform="translate(-655.498 -314.002)" fill="#ccc"/>
  <path id="Path_310" data-name="Path 310" d="M744.871,395.964H764.46a2.569,2.569,0,1,0,0-5.138H744.871a2.569,2.569,0,0,0,0,5.138Z" transform="translate(-666.096 -332.331)" fill="#ccc"/>
  <ellipse id="Ellipse_25" data-name="Ellipse 25" cx="9.634" cy="9.634" rx="9.634" ry="9.634" transform="translate(224.377 47.416)" fill="#019ba1"/>
  <path id="Path_311" data-name="Path 311" d="M311.864,381.5h8.992a.964.964,0,0,0,.963-.963v-6.744a.964.964,0,0,0-.963-.963h-2.531a.957.957,0,0,0-.821.458l-.706,1.147h-4.934a.964.964,0,0,0-.963.963v5.138A.964.964,0,0,0,311.864,381.5Zm8.992-8.028a.322.322,0,0,1,.321.321v6.744a.322.322,0,0,1-.321.321h-8.992a.322.322,0,0,1-.321-.321V375.4a.322.322,0,0,1,.321-.321h5.293l.894-1.453a.319.319,0,0,1,.274-.153Z" transform="translate(-82.349 -320.111)" fill="#fff"/>
  <ellipse id="Ellipse_26" data-name="Ellipse 26" cx="9.634" cy="9.634" rx="9.634" ry="9.634" transform="translate(165.289 49.021)" fill="#019ba1"/>
  <path id="Path_312" data-name="Path 312" d="M496.864,384.529h8.349a.965.965,0,0,0,.963-.963V373.289a.964.964,0,0,0-.963-.963h-6.05a.965.965,0,0,0-.6.212l-2.3,1.848a.958.958,0,0,0-.36.751v8.428A.964.964,0,0,0,496.864,384.529Zm8.349-11.561a.322.322,0,0,1,.321.321v10.276a.322.322,0,0,1-.321.321h-8.349a.322.322,0,0,1-.321-.321v-8.428a.319.319,0,0,1,.12-.25l2.3-1.848a.322.322,0,0,1,.2-.071Z" transform="translate(-326.116 -319.772)" fill="#fff"/>
  <path id="Path_313" data-name="Path 313" d="M503.222,384.968h5.138a.321.321,0,1,0,0-.642h-5.138a.321.321,0,1,0,0,.642Z" transform="translate(-330.868 -327.918)" fill="#fff"/>
  <path id="Path_314" data-name="Path 314" d="M503.222,390.968h5.138a.321.321,0,1,0,0-.642h-5.138a.321.321,0,1,0,0,.642Z" transform="translate(-330.868 -331.992)" fill="#fff"/>
  <path id="Path_315" data-name="Path 315" d="M503.222,396.968h5.138a.321.321,0,1,0,0-.642h-5.138a.321.321,0,1,0,0,.642Z" transform="translate(-330.868 -336.065)" fill="#fff"/>
  <ellipse id="Ellipse_27" data-name="Ellipse 27" cx="9.634" cy="9.634" rx="9.634" ry="9.634" transform="translate(105.879 47.095)" fill="#019ba1"/>
  <path id="Path_316" data-name="Path 316" d="M680.863,381.391h8.992a.965.965,0,0,0,.964-.963v-5.138a.965.965,0,0,0-.963-.963h-8.992a.965.965,0,0,0-.964.963v5.138A.964.964,0,0,0,680.863,381.391Zm8.992-6.423a.322.322,0,0,1,.321.321v5.138a.322.322,0,0,1-.321.321h-8.992a.321.321,0,0,1-.321-.321v-5.138a.321.321,0,0,1,.321-.321Z" transform="translate(-569.845 -321.13)" fill="#fff"/>
  <path id="Path_317" data-name="Path 317" d="M685.359,380.063a.965.965,0,0,0,.511-.145l4.8-3a.321.321,0,1,0-.341-.545l-4.8,3a.323.323,0,0,1-.34,0l-4.8-3a.321.321,0,1,0-.341.545l4.8,3A.964.964,0,0,0,685.359,380.063Z" transform="translate(-569.845 -322.487)" fill="#fff"/>
  <ellipse id="Ellipse_28" data-name="Ellipse 28" cx="9.634" cy="9.634" rx="9.634" ry="9.634" transform="translate(224.377 85.309)" fill="#019ba1"/>
  <path id="Path_318" data-name="Path 318" d="M311.864,500.391h8.992a.964.964,0,0,0,.963-.963v-5.138a.964.964,0,0,0-.963-.963h-8.992a.964.964,0,0,0-.963.963v5.138a.964.964,0,0,0,.963.963Zm8.992-6.423a.321.321,0,0,1,.321.321v5.138a.321.321,0,0,1-.321.321h-8.992a.321.321,0,0,1-.321-.321v-5.138a.321.321,0,0,1,.321-.321Z" transform="translate(-82.349 -401.915)" fill="#fff"/>
  <path id="Path_319" data-name="Path 319" d="M315.981,505.482h6.462a.642.642,0,0,0,.556-.963l-1.947-3.372a.642.642,0,0,0-1.112,0l-1.257,2.178-.728-1.262a.642.642,0,0,0-1.113,0l-1.418,2.456a.642.642,0,0,0,.556.963Zm0-.642h0l1.418-2.456,1.006,1.743a.321.321,0,0,0,.278.161h0a.321.321,0,0,0,.278-.161l1.535-2.659,1.947,3.372Z" transform="translate(-85.041 -407.007)" fill="#fff"/>
  <ellipse id="Ellipse_29" data-name="Ellipse 29" cx="0.642" cy="0.642" rx="0.642" ry="0.642" transform="translate(229.837 92.695)" fill="#fff"/>
  <ellipse id="Ellipse_30" data-name="Ellipse 30" cx="9.634" cy="9.634" rx="9.634" ry="9.634" transform="translate(164.647 84.346)" fill="#019ba1"/>
  <path id="Path_320" data-name="Path 320" d="M507.791,489.606a2.89,2.89,0,1,0-2.89-2.89A2.89,2.89,0,0,0,507.791,489.606Zm0-5.138a2.248,2.248,0,1,1-2.248,2.248A2.248,2.248,0,0,1,507.791,484.468Z" transform="translate(-333.511 -395.466)" fill="#fff"/>
  <path id="Path_321" data-name="Path 321" d="M503.525,508.643h5.138a1.125,1.125,0,0,0,1.124-1.124,3.693,3.693,0,0,0-7.386,0A1.125,1.125,0,0,0,503.525,508.643Zm2.569-4.175a3.054,3.054,0,0,1,3.051,3.051.482.482,0,0,1-.482.482h-5.138a.482.482,0,0,1-.482-.482A3.054,3.054,0,0,1,506.094,504.468Z" transform="translate(-331.813 -409.043)" fill="#fff"/>
  <path id="Path_322" data-name="Path 322" d="M86.745,439.1H82.808L80.935,423.91h5.811Z" transform="translate(180.526 -287.779)" fill="#ffb8b8"/>
  <path id="Path_323" data-name="Path 323" d="M0,4.781H12.373V0H4.781A4.781,4.781,0,0,0,0,4.781H0Z" transform="translate(255.743 150.192)" fill="#2f2e41"/>
  <path id="Path_324" data-name="Path 324" d="M40.745,439.1H36.808L34.935,423.91h5.811Z" transform="translate(241.298 -287.779)" fill="#ffb8b8"/>
  <path id="Path_325" data-name="Path 325" d="M0,4.781H12.373V0H4.781A4.781,4.781,0,0,0,0,4.781H0Z" transform="translate(270.515 150.192)" fill="#2f2e41"/>
  <path id="Path_326" data-name="Path 326" d="M166.379,450.17a3.45,3.45,0,0,1-.662-5.248l-2.592-36.788,7.467.724.205,36.027a3.469,3.469,0,0,1-4.418,5.286Z" transform="translate(115.184 -344.08)" fill="#ffb8b8"/>
  <path id="Path_327" data-name="Path 327" d="M179.776,556.8a1.451,1.451,0,0,0,1.435-1.273l2.288-19.14a1.124,1.124,0,0,1,2.226-.041l2.883,18.326a1.438,1.438,0,0,0,1.428,1.22h4.672a1.445,1.445,0,0,0,1.445-1.456l-2.23-40.634a1.437,1.437,0,0,0-1.237-1.419l-17.339-2.517a1.445,1.445,0,0,0-1.653,1.44l.3,43.853a1.445,1.445,0,0,0,1.376,1.433l4.334.207Z" transform="translate(87.378 -413.136)" fill="#2f2e41"/>
  <path id="Path_328" data-name="Path 328" d="M182.048,429.45a14.478,14.478,0,0,0,4.889-.871,1.434,1.434,0,0,0,.937-1.286c.15-3.32,1.025-20.406,3.572-30.828a10.655,10.655,0,0,0-4.058-11.1q-.206-.148-.419-.29a10.375,10.375,0,0,0-10.082-.79,10.668,10.668,0,0,0-6.218,8.336l-4.155,30.845a1.438,1.438,0,0,0,.3,1.092,1.419,1.419,0,0,0,.981.537,21.814,21.814,0,0,1,8.247,2.825A12.243,12.243,0,0,0,182.048,429.45Z" transform="translate(94.096 -327.245)" fill="#3f3d56"/>
  <path id="Path_329" data-name="Path 329" d="M158.647,414.7l6.837-1.854a1.447,1.447,0,0,0,1.017-1.773l-2.4-8.865a3.982,3.982,0,0,0-7.818,1.261l.547,9.915a1.445,1.445,0,0,0,1.821,1.315Z" transform="translate(122.575 -338.062)" fill="#3f3d56"/>
  <ellipse id="Ellipse_31" data-name="Ellipse 31" cx="7.887" cy="7.887" rx="7.887" ry="7.887" transform="translate(265.724 37.074)" fill="#ffb8b8"/>
  <path id="Path_330" data-name="Path 330" d="M235.473,391.441a3.379,3.379,0,0,1,.077.527l13.8,7.958L252.7,398l3.575,4.68-7.173,5.113-15.738-12.416a3.371,3.371,0,1,1,2.112-3.931Z" transform="translate(9.557 -330.983)" fill="#ffb8b8"/>
  <path id="Path_331" data-name="Path 331" d="M205.194,402.523l5.942,3.856a1.447,1.447,0,0,0,2-.426l5-7.7a3.982,3.982,0,0,0-6.155-4.983l-7.021,7.023a1.445,1.445,0,0,0,.235,2.234Z" transform="translate(54.851 -333.196)" fill="#3f3d56"/>
  <path id="Path_332" data-name="Path 332" d="M190.14,330.872a2.548,2.548,0,0,1-4.4-1.415,2.589,2.589,0,0,1,0-.5c.1-.948.647-1.81.516-2.811a1.475,1.475,0,0,0-.27-.69c-1.173-1.57-3.925.7-5.032-.719-.679-.872.119-2.244-.4-3.218-.687-1.286-2.723-.651-4-1.356-1.42-.783-1.335-2.963-.4-4.288a6.745,6.745,0,0,1,5.113-2.6,13.716,13.716,0,0,1,5.778,1.128,11.547,11.547,0,0,1,5.459,3.785,9.241,9.241,0,0,1,.934,7.868A14.831,14.831,0,0,1,190.14,330.872Z" transform="translate(89.053 -279.67)" fill="#2f2e41"/>
  <path id="Path_333" data-name="Path 333" d="M143.714,689.968h44.959a.321.321,0,0,0,0-.642H143.714a.321.321,0,0,0,0,.642Z" transform="translate(104.269 -534.973)" fill="#3f3d56"/>
</svg>
