<svg id="paymentcolor" xmlns="http://www.w3.org/2000/svg" width="25.549" height="20.694" viewBox="0 0 25.549 20.694">
  <path id="Path_74" data-name="Path 74" d="M113.784,104.137a1.759,1.759,0,0,0,1.99,1.989h18.018a1.754,1.754,0,0,0,1.975-1.989V97.486H113.784ZM112,90.969q0-3.757,3.773-3.756h18.018q3.757,0,3.758,3.756v13.168q0,3.773-3.758,3.771H115.774q-3.773,0-3.773-3.771Zm1.783,0V92.5h21.984V90.969a1.746,1.746,0,0,0-1.975-1.975H115.774a1.753,1.753,0,0,0-1.99,1.975Z" transform="translate(-112.001 -87.213)" fill="#019ba1" fill-rule="evenodd"/>
</svg>
