<svg id="privacy" xmlns="http://www.w3.org/2000/svg" width="120.21" height="85.679" viewBox="0 0 120.21 85.679">
  <path id="Path_2960" data-name="Path 2960" d="M272.657,716.009H376.927a.2.2,0,0,0,0-.4H272.657a.2.2,0,0,0,0,.4Z" transform="translate(-264.69 -630.329)" fill="#ccc"/>
  <path id="Path_162" data-name="Path 162" d="M358.936,254.561c-6.1-6-8.674-12.266-7.252-17.634,1.824-6.889,9.927-11.653,22.23-13.069l.045.4c-12.133,1.4-20.112,6.053-21.891,12.776-1.383,5.225,1.155,11.351,7.147,17.249Z" transform="translate(-330.936 -217.152)" fill="#f0f0f0"/>
  <path id="Path_163" data-name="Path 163" d="M498.948,468.518a95.46,95.46,0,0,1-24.1-3.306,90.774,90.774,0,0,1-26.937-11.74l.221-.331a90.375,90.375,0,0,0,26.817,11.686,92.957,92.957,0,0,0,26.634,3.246l.014.4Q500.29,468.518,498.948,468.518Z" transform="translate(-412.111 -409.8)" fill="#f0f0f0"/>
  <path id="Path_164" data-name="Path 164" d="M721.313,288.5l-.127-.377c6.807-2.3,11.064-6.009,12.312-10.721,1.586-5.991-1.86-12.943-9.7-19.576-7.883-6.666-19.25-12.2-32.007-15.575l.1-.384c12.814,3.392,24.236,8.952,32.162,15.656,7.967,6.737,11.458,13.834,9.83,19.982C732.6,282.349,728.252,286.152,721.313,288.5Z" transform="translate(-617.016 -232.281)" fill="#f0f0f0"/>
  <path id="Path_165" data-name="Path 165" d="M314.782,421.843c-14.955-6.633-26.478-15.237-32.448-24.23l.331-.22c5.929,8.93,17.392,17.484,32.278,24.086Z" transform="translate(-272.988 -362.959)" fill="#f0f0f0"/>
  <path id="Path_166" data-name="Path 166" d="M789.717,598.02q-2.314,0-4.707-.1l.017-.4c11.9.515,22.408-.909,30.377-4.121l.149.369C808.6,596.568,799.742,598.02,789.717,598.02Z" transform="translate(-695.343 -527.646)" fill="#f0f0f0"/>
  <path id="Path_167" data-name="Path 167" d="M501.512,188.957c-2.472-.8-5.014-1.554-7.557-2.227-14.631-3.873-29.013-5.248-41.592-3.976l-.04-.4c12.626-1.276,27.058.1,41.734,3.987,2.55.675,5.1,1.426,7.578,2.234Z" transform="translate(-415.815 -181.896)" fill="#f0f0f0"/>
  <path id="Path_168" data-name="Path 168" d="M300.444,258.294c-6.1-6-8.674-12.266-7.252-17.634,1.824-6.889,9.927-11.653,22.23-13.069l.045.4c-12.133,1.4-20.112,6.053-21.891,12.776-1.383,5.225,1.155,11.351,7.147,17.249Z" transform="translate(-281.79 -220.289)" fill="#f0f0f0"/>
  <path id="Path_169" data-name="Path 169" d="M440.455,472.251a95.458,95.458,0,0,1-24.1-3.306,90.772,90.772,0,0,1-26.937-11.739l.221-.331A90.377,90.377,0,0,0,416.46,468.56a92.959,92.959,0,0,0,26.634,3.246l.014.4Q441.8,472.251,440.455,472.251Z" transform="translate(-362.964 -412.937)" fill="#f0f0f0"/>
  <path id="Path_170" data-name="Path 170" d="M662.821,292.232l-.127-.377c6.807-2.3,11.064-6.009,12.312-10.721,1.586-5.991-1.86-12.943-9.7-19.576-7.883-6.666-19.249-12.2-32.007-15.575l.1-.385c12.814,3.392,24.236,8.952,32.162,15.656,7.967,6.737,11.458,13.834,9.83,19.982C674.106,286.083,669.76,289.885,662.821,292.232Z" transform="translate(-567.87 -235.419)" fill="#f0f0f0"/>
  <path id="Path_171" data-name="Path 171" d="M256.29,425.577c-14.955-6.633-26.478-15.238-32.448-24.23l.331-.22c5.929,8.93,17.392,17.484,32.278,24.086Z" transform="translate(-223.842 -366.097)" fill="#f0f0f0"/>
  <path id="Path_172" data-name="Path 172" d="M731.225,601.754q-2.314,0-4.707-.1l.017-.4c11.9.515,22.408-.909,30.377-4.121l.149.369C750.11,600.3,741.25,601.754,731.225,601.754Z" transform="translate(-646.198 -530.783)" fill="#f0f0f0"/>
  <path id="Path_173" data-name="Path 173" d="M443.021,192.691c-2.472-.8-5.014-1.554-7.557-2.227-14.631-3.873-29.013-5.248-41.592-3.976l-.04-.4c12.626-1.276,27.058.1,41.734,3.987,2.55.675,5.1,1.426,7.578,2.234Z" transform="translate(-366.67 -185.033)" fill="#f0f0f0"/>
  <path id="Path_174" data-name="Path 174" d="M239.622,330.306c2.858-3.2,7.417-5.157,11.549-3.988a19.783,19.783,0,0,0-7.72,11.175c-.446,1.745-.761,3.731-2.212,4.8a4.422,4.422,0,0,1-3.209.671,13.135,13.135,0,0,1-3.2-1.011l-.279.024C235.357,337.757,236.764,333.51,239.622,330.306Z" transform="translate(-232.844 -302.954)" fill="#f2f2f2"/>
  <path id="Path_175" data-name="Path 175" d="M251.294,327.669a16.909,16.909,0,0,0-8.868,5.44,7.283,7.283,0,0,0-1.228,1.923,4.176,4.176,0,0,0-.247,2.184,8.645,8.645,0,0,1,.191,2.084,2.557,2.557,0,0,1-1.084,1.789,6.644,6.644,0,0,1-2.46.97,6.524,6.524,0,0,0-2.733,1.079c-.094.077-.208-.074-.114-.151,1.356-1.106,3.242-.964,4.742-1.767a2.59,2.59,0,0,0,1.436-1.77,6.706,6.706,0,0,0-.154-2.119,4.457,4.457,0,0,1,.161-2.145,6.732,6.732,0,0,1,1.149-1.963,16.4,16.4,0,0,1,3.82-3.421,17.208,17.208,0,0,1,5.365-2.321C251.39,327.453,251.411,327.641,251.294,327.669Z" transform="translate(-232.979 -304.216)" fill="#fff"/>
  <path id="Path_176" data-name="Path 176" d="M283.918,339.55a2.537,2.537,0,0,1-.078-3.284c.077-.094.227.021.15.115a2.349,2.349,0,0,0,.079,3.055C284.151,339.526,284,339.64,283.918,339.55Z" transform="translate(-273.778 -311.57)" fill="#fff"/>
  <path id="Path_177" data-name="Path 177" d="M272.6,380.507a4.89,4.89,0,0,0,3.4-1.076c.095-.077.209.074.114.151a5.086,5.086,0,0,1-3.537,1.112C272.453,380.686,272.48,380.5,272.6,380.507Z" transform="translate(-264.722 -347.85)" fill="#fff"/>
  <path id="Path_178" data-name="Path 178" d="M314.407,336.653a1.436,1.436,0,0,0,1.159.717c.122.007.095.194-.026.187a1.609,1.609,0,0,1-1.284-.79.1.1,0,0,1,.018-.133A.1.1,0,0,1,314.407,336.653Z" transform="translate(-299.794 -311.893)" fill="#fff"/>
  <path id="Path_179" data-name="Path 179" d="M255.917,390.192l-.229-.005a18.912,18.912,0,0,0-3.062.179c-.079.01-.158.021-.236.033a19.937,19.937,0,0,0-6.932,2.415,19.358,19.358,0,0,0-2.432,1.655,12.605,12.605,0,0,1-3.383,2.281,3.321,3.321,0,0,1-.394.116l-5.759-3.979-.027-.046-.237-.148.114-.1.066-.059c.015-.013.03-.026.042-.039l.014-.012c.013-.013.026-.023.037-.034q.33-.293.666-.582l0,0a28.469,28.469,0,0,1,5.546-3.813c.06-.03.121-.062.183-.091a18.48,18.48,0,0,1,2.8-1.128,16.349,16.349,0,0,1,1.6-.405,13.581,13.581,0,0,1,4.243-.163,10.785,10.785,0,0,1,7.247,3.763C255.83,390.079,255.873,390.134,255.917,390.192Z" transform="translate(-231.725 -353.525)" fill="#f2f2f2"/>
  <path id="Path_180" data-name="Path 180" d="M256.426,403.441a16.909,16.909,0,0,0-10.356-1,7.281,7.281,0,0,0-2.138.8,4.177,4.177,0,0,0-1.512,1.6,8.645,8.645,0,0,1-1.1,1.779,2.557,2.557,0,0,1-1.942.775,6.645,6.645,0,0,1-2.548-.706A6.524,6.524,0,0,0,234,405.9c-.122,0-.122-.185,0-.189,1.749-.066,3.169,1.182,4.85,1.444a2.59,2.59,0,0,0,2.212-.549,6.705,6.705,0,0,0,1.153-1.785,4.457,4.457,0,0,1,1.42-1.615,6.733,6.733,0,0,1,2.1-.875,16.406,16.406,0,0,1,5.109-.431,17.209,17.209,0,0,1,5.681,1.377C256.633,403.326,256.536,403.489,256.426,403.441Z" transform="translate(-232.297 -366.71)" fill="#fff"/>
  <path id="Path_181" data-name="Path 181" d="M316.9,389.533a2.537,2.537,0,0,1,1.915-2.669c.118-.029.169.153.051.182a2.349,2.349,0,0,0-1.776,2.487C317.1,389.654,316.906,389.654,316.9,389.533Z" transform="translate(-302.02 -354.11)" fill="#fff"/>
  <path id="Path_182" data-name="Path 182" d="M287.157,418.31a4.89,4.89,0,0,0,3.36,1.186c.122,0,.122.185,0,.189a5.086,5.086,0,0,1-3.494-1.242C286.932,418.363,287.066,418.23,287.157,418.31Z" transform="translate(-276.902 -380.513)" fill="#fff"/>
  <path id="Path_183" data-name="Path 183" d="M350.378,403.851a1.436,1.436,0,0,0,.494,1.27c.093.079-.041.212-.134.134a1.609,1.609,0,0,1-.549-1.4.1.1,0,0,1,.095-.095.1.1,0,0,1,.095.095Z" transform="translate(-329.991 -368.306)" fill="#fff"/>
  <path id="Path_184" data-name="Path 184" d="M916.979,477.309c-1.615-3.979-5.252-7.35-9.536-7.638a19.783,19.783,0,0,1,3.515,13.12c-.166,1.793-.537,3.77.471,5.262a4.422,4.422,0,0,0,2.8,1.711,13.137,13.137,0,0,0,3.349.122l.254.116C918.492,485.76,918.594,481.288,916.979,477.309Z" transform="translate(-798.212 -423.688)" fill="#f2f2f2"/>
  <path id="Path_185" data-name="Path 185" d="M907.089,469.253a16.909,16.909,0,0,1,6.524,8.1,7.282,7.282,0,0,1,.51,2.224,4.177,4.177,0,0,1-.5,2.14,8.649,8.649,0,0,0-.88,1.9,2.557,2.557,0,0,0,.42,2.049,6.643,6.643,0,0,0,1.99,1.74,6.522,6.522,0,0,1,2.211,1.935c.063.1.221,0,.158-.1-.906-1.5-2.729-2-3.872-3.258a2.59,2.59,0,0,1-.757-2.15,6.707,6.707,0,0,1,.857-1.944,4.456,4.456,0,0,0,.569-2.074,6.73,6.73,0,0,0-.423-2.235,16.406,16.406,0,0,0-2.448-4.505,17.209,17.209,0,0,0-4.273-3.989c-.1-.067-.185.1-.084.169Z" transform="translate(-797.877 -423.182)" fill="#fff"/>
  <path id="Path_186" data-name="Path 186" d="M945.211,497.647a2.537,2.537,0,0,0,1.177-3.067c-.041-.115-.221-.057-.18.058a2.349,2.349,0,0,1-1.1,2.851C945,497.546,945.1,497.7,945.211,497.647Z" transform="translate(-829.82 -444.565)" fill="#fff"/>
  <path id="Path_187" data-name="Path 187" d="M933.646,534.865a4.889,4.889,0,0,1-2.838-2.155c-.063-.1-.222,0-.158.1a5.086,5.086,0,0,0,2.958,2.236c.118.033.155-.153.039-.185Z" transform="translate(-817.699 -476.618)" fill="#fff"/>
  <path id="Path_188" data-name="Path 188" d="M918.821,485.629a1.436,1.436,0,0,1-1.332.286c-.117-.034-.155.151-.039.185a1.609,1.609,0,0,0,1.475-.313.1.1,0,0,0,.027-.131.1.1,0,0,0-.131-.027Z" transform="translate(-806.561 -437.084)" fill="#fff"/>
  <path id="Path_189" data-name="Path 189" d="M844.893,527.626l.218.072a18.922,18.922,0,0,1,2.824,1.2c.071.036.142.073.211.11a19.938,19.938,0,0,1,5.717,4.6,19.378,19.378,0,0,1,1.735,2.376,12.6,12.6,0,0,0,2.42,3.285,3.332,3.332,0,0,0,.333.242l6.762-1.812.04-.034.273-.06-.073-.136c-.014-.026-.029-.052-.042-.078s-.019-.034-.027-.051l-.009-.016c-.008-.016-.016-.03-.024-.045q-.213-.387-.432-.772s0,0,0,0a28.467,28.467,0,0,0-3.942-5.455c-.046-.049-.093-.1-.142-.147a18.468,18.468,0,0,0-2.254-2,16.356,16.356,0,0,0-1.373-.92,13.582,13.582,0,0,0-3.942-1.579,10.785,10.785,0,0,0-8.09,1.108Z" transform="translate(-745.657 -471.085)" fill="#f2f2f2"/>
  <path id="Path_190" data-name="Path 190" d="M844.554,535.082a16.909,16.909,0,0,1,10.088,2.543,7.284,7.284,0,0,1,1.746,1.468,4.176,4.176,0,0,1,.888,2.011,8.641,8.641,0,0,0,.44,2.046,2.557,2.557,0,0,0,1.569,1.383,6.645,6.645,0,0,0,2.637.191,6.524,6.524,0,0,1,2.931.213c.113.045.177-.133.064-.178-1.625-.65-3.381.048-5.054-.27a2.589,2.589,0,0,1-1.9-1.26,6.706,6.706,0,0,1-.486-2.068,4.457,4.457,0,0,0-.795-2,6.731,6.731,0,0,0-1.683-1.53,16.4,16.4,0,0,0-4.667-2.124,17.211,17.211,0,0,0-5.813-.613c-.121.008-.086.194.035.186Z" transform="translate(-745.28 -478.46)" fill="#fff"/>
  <path id="Path_191" data-name="Path 191" d="M896.869,531.32a2.537,2.537,0,0,0-.906-3.157c-.1-.067-.211.088-.109.155a2.349,2.349,0,0,1,.837,2.939c-.051.111.128.174.178.064Z" transform="translate(-788.441 -472.819)" fill="#fff"/>
  <path id="Path_192" data-name="Path 192" d="M905.278,571.619a4.89,4.89,0,0,1-3.563-.012c-.113-.045-.177.133-.064.178a5.086,5.086,0,0,0,3.708,0c.114-.044.032-.215-.081-.171Z" transform="translate(-793.296 -509.33)" fill="#fff"/>
  <path id="Path_193" data-name="Path 193" d="M864.7,536.809a1.436,1.436,0,0,1-.892,1.03c-.114.043-.033.214.081.171a1.61,1.61,0,0,0,.989-1.137.1.1,0,0,0-.057-.121A.1.1,0,0,0,864.7,536.809Z" transform="translate(-761.507 -480.046)" fill="#fff"/>
  <circle id="Ellipse_9" data-name="Ellipse 9" cx="1.591" cy="1.591" r="1.591" transform="translate(32.16 19.859)" fill="#fd6584"/>
  <circle id="Ellipse_10" data-name="Ellipse 10" cx="1.591" cy="1.591" r="1.591" transform="translate(91.249 39.796) rotate(-80.783)" fill="#e6e6e6"/>
  <circle id="Ellipse_11" data-name="Ellipse 11" cx="1.591" cy="1.591" r="1.591" transform="translate(32.095 1.956)" fill="#e6e6e6"/>
  <path id="Path_194" data-name="Path 194" d="M515.047,217.986h-.454V205.546a7.2,7.2,0,0,0-7.2-7.2H481.039a7.2,7.2,0,0,0-7.2,7.2h0V273.79a7.2,7.2,0,0,0,7.2,7.2h26.355a7.2,7.2,0,0,0,7.2-7.2V226.84h.454Z" transform="translate(-433.893 -195.718)" fill="#3f3d56"/>
  <path id="Path_195" data-name="Path 195" d="M523.507,215.446V283.59a5.376,5.376,0,0,1-5.375,5.376H491.648a5.376,5.376,0,0,1-5.376-5.376V215.446a5.376,5.376,0,0,1,5.376-5.376h3.214a2.554,2.554,0,0,0,2.365,3.519h15.1a2.555,2.555,0,0,0,2.365-3.519h3.44a5.376,5.376,0,0,1,5.376,5.376h0Z" transform="translate(-444.339 -205.568)" fill="#f2f2f2"/>
  <rect id="Rectangle_25" data-name="Rectangle 25" width="8.215" height="0.368" transform="translate(43.94 11.007)" fill="#fff"/>
  <rect id="Rectangle_26" data-name="Rectangle 26" width="8.215" height="0.368" transform="translate(56.442 11.007)" fill="#fff"/>
  <path id="Path_196" data-name="Path 196" d="M538.956,519.112h-26.78a.687.687,0,0,1,0-1.374h26.78a.687.687,0,0,1,0,1.374Z" transform="translate(-465.527 -464.074)" fill="#ccc"/>
  <path id="Path_197" data-name="Path 197" d="M538.956,549.03h-26.78a.687.687,0,0,1,0-1.374h26.78a.687.687,0,0,1,0,1.374Z" transform="translate(-465.527 -489.212)" fill="#ccc"/>
  <path id="Path_198" data-name="Path 198" d="M538.956,578.948h-26.78a.687.687,0,0,1,0-1.374h26.78a.687.687,0,0,1,0,1.374Z" transform="translate(-465.527 -514.349)" fill="#ccc"/>
  <rect id="Rectangle_27" data-name="Rectangle 27" width="8.215" height="0.368" transform="translate(68.945 11.007)" fill="#fff"/>
  <rect id="Rectangle_28" data-name="Rectangle 28" width="8.215" height="0.368" transform="translate(43.94 77.014)" fill="#fff"/>
  <rect id="Rectangle_29" data-name="Rectangle 29" width="8.215" height="0.368" transform="translate(56.442 77.014)" fill="#fff"/>
  <rect id="Rectangle_30" data-name="Rectangle 30" width="8.215" height="0.368" transform="translate(68.945 77.014)" fill="#fff"/>
  <circle id="Ellipse_12" data-name="Ellipse 12" cx="12.453" cy="12.453" r="12.453" transform="translate(48.097 20.719)" fill="#d1d3d4"/>
  <circle id="Ellipse_13" data-name="Ellipse 13" cx="11.361" cy="11.361" r="11.361" transform="translate(49.189 22.363)" fill="#019ba1"/>
  <path id="Path_199" data-name="Path 199" d="M579.2,373.286l-.074,0a1.513,1.513,0,0,1-1.121-.583l-1.791-2.3a1.516,1.516,0,0,1,.265-2.125l.064-.05a1.517,1.517,0,0,1,2.126.265.909.909,0,0,0,.673.35.891.891,0,0,0,.7-.283l3.636-3.838a1.516,1.516,0,0,1,2.141-.058l.059.056a1.516,1.516,0,0,1,.058,2.141l-5.642,5.955a1.512,1.512,0,0,1-1.1.473Z" transform="translate(-519.643 -335.11)" fill="#fff"/>
  <rect id="Rectangle_31" data-name="Rectangle 31" width="1.471" height="7.906" transform="translate(39.182 15.744)" fill="#3f3d56"/>
  <rect id="Rectangle_32" data-name="Rectangle 32" width="1.471" height="4.597" transform="translate(39.182 24.569)" fill="#3f3d56"/>
  <rect id="Rectangle_33" data-name="Rectangle 33" width="1.471" height="4.597" transform="translate(39.182 30.085)" fill="#3f3d56"/>
  <circle id="Ellipse_14" data-name="Ellipse 14" cx="0.735" cy="0.735" r="0.735" transform="translate(52.604 4.896)" fill="#fff"/>
  <path id="Path_200" data-name="Path 200" d="M543.046,398.666a11.359,11.359,0,0,1-11.33-10.56c-.018.263-.031.529-.031.8a11.361,11.361,0,0,0,22.722,0c0-.269-.013-.535-.031-.8A11.359,11.359,0,0,1,543.046,398.666Z" transform="translate(-482.496 -355.156)" fill="#231f20" opacity="0.16"/>
  <path id="Path_201" data-name="Path 201" d="M479.182,225.886l9.009.368,1.1-6.068-7.722-2.39Z" transform="translate(-402.615 -182.995)" fill="#ffb8b8"/>
  <path id="Path_202" data-name="Path 202" d="M643.669,329.26l.087-2.867L639.39,325.3l-7.861-2.293a1.641,1.641,0,1,0-.876,2.006l7.643,3.142Z" transform="translate(-563.697 -299.511)" fill="#ffb8b8"/>
  <path id="Path_203" data-name="Path 203" d="M706.725,349.529l2.456-3.5.061.008a52.316,52.316,0,0,1,6.416,1.272,2.018,2.018,0,0,1,1.307,1.087,2.117,2.117,0,0,1-.294,2.3,2.265,2.265,0,0,1-2.328.773Z" transform="translate(-629.567 -319.8)" fill="#019ba1"/>
  <path id="Path_204" data-name="Path 204" d="M473.232,467.782h-2.5l-1.189-9.637h3.688Z" transform="translate(-394.518 -384.939)" fill="#ffb8b8"/>
  <path id="Path_205" data-name="Path 205" d="M587.628,461.583l-2.47.373-2.616-9.351,3.239-.551Z" transform="translate(-489.459 -379.822)" fill="#ffb8b8"/>
  <path id="Path_206" data-name="Path 206" d="M697.766,433.381l-8.642-1.471-.307.634a29.343,29.343,0,0,0-2.876,10.9c-.209,3.2-.331,6.57-.335,10.107-.006,5.481.273,10.567.716,15.194l4.743-.03A112.008,112.008,0,0,1,691.623,454c.363-3.486.868-6.742,1.451-9.747a67.047,67.047,0,0,0,4.561,12.8c1.657,3.505,5.066,7.557,6.724,11.062l5.095-.611c-1.338-3.539-3.726-8.708-5.064-12.248-1.914-5.061-2.778-8.492-4.692-13.553a15.591,15.591,0,0,0,.064-2.866,9.016,9.016,0,0,0-1.388-4.777Z" transform="translate(-611.822 -391.961)" fill="#2f2e41"/>
  <path id="Path_207" data-name="Path 207" d="M718.107,358.389c.432.807-.593,2.478-1.335,2.638l-8.546-2.762,4.3-12.469,2.165.393,3.462.583,1.228,1.116a2.159,2.159,0,0,1,.6,2.279Z" transform="translate(-630.828 -319.607)" fill="#019ba1"/>
  <path id="Path_208" data-name="Path 208" d="M661.8,386.338l-2.417-1.543-3.176,3.19-6,5.578a1.641,1.641,0,1,0,1.275,1.78l6.612-4.956Z" transform="translate(-580.404 -352.374)" fill="#ffb8b8"/>
  <path id="Path_209" data-name="Path 209" d="M714.912,360.151l-1.751-3.9.038-.049a52.33,52.33,0,0,1,4.378-4.859,2.019,2.019,0,0,1,1.6-.566,2.118,2.118,0,0,1,1.827,1.432,2.264,2.264,0,0,1-.528,2.4Z" transform="translate(-634.974 -323.781)" fill="#019ba1"/>
  <circle id="Ellipse_15" data-name="Ellipse 15" cx="3.801" cy="3.801" r="3.801" transform="translate(81.585 17.755)" fill="#ffb8b8"/>
  <path id="Path_210" data-name="Path 210" d="M735.6,297.5l-.015,0-5.523-1.381a1.263,1.263,0,0,1-.776-1.875l.182-.3a2.071,2.071,0,0,0,.085-1.978,2.18,2.18,0,0,0-1.253-1.071l-.018-.009-.116-.072a.905.905,0,0,1-.479-.554.934.934,0,0,1,.091-.753,4.569,4.569,0,0,1,2.087-1.84,4.713,4.713,0,0,1,3.464-.1.615.615,0,0,1,.566-.144c2.86.693,3.1,2.613,2.531,5.694l.669,2.7a1.351,1.351,0,0,1-1.206,1.673Zm-2.3-9.914h0Zm.069-.017h0Z" transform="translate(-647.142 -270.438)" fill="#2f2e41"/>
  <path id="Path_211" data-name="Path 211" d="M683.65,689.716h-1.426l-.255-1.346-.652,1.346h-3.782a.85.85,0,0,1-.483-1.55l3.02-2.086v-1.361l3.177.19Z" transform="translate(-604.327 -604.374)" fill="#2f2e41"/>
  <path id="Path_212" data-name="Path 212" d="M804.082,689.716h-1.426l-.255-1.346-.652,1.346h-3.782a.85.85,0,0,1-.483-1.55l3.02-2.086v-1.361l3.177.19Z" transform="translate(-705.516 -604.374)" fill="#2f2e41"/>
</svg>
