<svg xmlns="http://www.w3.org/2000/svg" width="284.203" height="212.324" viewBox="0 0 284.203 212.324">
  <g id="proInfo" transform="translate(1696 -1925.856)">
    <path id="Path_224" data-name="Path 224" d="M435.247,331.371h-16.9a3.739,3.739,0,0,1-3.734-3.734v-16.9A3.739,3.739,0,0,1,418.344,307h16.9a3.739,3.739,0,0,1,3.734,3.734v16.9A3.739,3.739,0,0,1,435.247,331.371Zm-16.9-23.585a2.951,2.951,0,0,0-2.948,2.948v16.9a2.951,2.951,0,0,0,2.948,2.948h16.9a2.951,2.951,0,0,0,2.948-2.948v-16.9a2.951,2.951,0,0,0-2.948-2.948Z" transform="translate(-2041.383 1681.807)" fill="#3f3d56"/>
    <path id="Path_225" data-name="Path 225" d="M440.8,335.113H429.789a1.181,1.181,0,0,1-1.179-1.179v-8.255a1.181,1.181,0,0,1,1.179-1.179h3.1a1.172,1.172,0,0,1,1,.561l.864,1.4h6.04a1.181,1.181,0,0,1,1.179,1.179v6.289a1.181,1.181,0,0,1-1.179,1.179Z" transform="translate(-2049.88 1671.186)" fill="#019ba1"/>
    <circle id="Ellipse_17" data-name="Ellipse 17" cx="9.109" cy="9.109" r="9.109" transform="translate(-1665.342 1997.47)" fill="#ffb8b8"/>
    <path id="Path_226" data-name="Path 226" d="M303.365,430.82q-.172,0-.346-.015a4.08,4.08,0,0,1-3.662-4.864,3.81,3.81,0,0,1,.1-.388l-13.444-15.9a3.169,3.169,0,0,1-.22-3.777l.024-.03,12.1-11.932a3.5,3.5,0,1,1,4.866,5.026l-8.764,8.332,9.595,15.4a3.879,3.879,0,0,1,.541.067,4.08,4.08,0,0,1-.791,8.082Z" transform="translate(-1962.887 1629.655)" fill="#ffb8b8"/>
    <path id="Path_227" data-name="Path 227" d="M139.327,434.625h4.547l2.163-17.537h-6.71Z" transform="translate(-1780.559 1698.721)" fill="#ffb8b8"/>
    <path id="Path_228" data-name="Path 228" d="M374.878,670.924h8.954a5.706,5.706,0,0,1,5.706,5.706v.185h-14.66Z" transform="translate(-2017.269 1460.937)" fill="#2f2e41"/>
    <path id="Path_229" data-name="Path 229" d="M24.366,422.445l3.907,2.326L39.1,410.81l-5.766-3.433Z" transform="translate(-1710.788 1704.615)" fill="#ffb8b8"/>
    <path id="Path_230" data-name="Path 230" d="M257.609,653.956l7.693,4.581h0a5.706,5.706,0,0,1,1.983,7.822l-.095.159-12.6-7.5Z" transform="translate(-1944.268 1471.235)" fill="#2f2e41"/>
    <path id="Path_231" data-name="Path 231" d="M317.649,529.838h-5.091a1.666,1.666,0,0,1-1.659-1.492L305.766,480.1a.556.556,0,0,0-1.06-.17l-9.259,20.5-16.393,26.731a1.677,1.677,0,0,1-2.095.655l-6.549-2.881a1.669,1.669,0,0,1-.761-2.384l15.07-25.233,4.622-21.26c-1.454-9.22,4.778-22.927,4.841-23.065l.031-.067,17.165-6.709.086.105c6.769,22.215,10.894,46.122,7.849,81.986a1.68,1.68,0,0,1-1.664,1.529Z" transform="translate(-1953.261 1597.314)" fill="#2f2e41"/>
    <path id="Path_232" data-name="Path 232" d="M319.083,416.939l-.08-.168c-.038-.08-3.855-8.13-6.8-16.734a12.691,12.691,0,0,1,.88-10.171,12.829,12.829,0,0,1,8.181-6.291h0a12.845,12.845,0,0,1,14.909,7.693c2.334,5.836,1.59,12.066.89,16.965l-.014.1-.089.043Z" transform="translate(-1978.823 1635.548)" fill="#019ba1"/>
    <path id="Path_233" data-name="Path 233" d="M345.429,327.261H330.966v-6.3c3.174-1.261,6.281-2.334,8.159,0a6.3,6.3,0,0,1,6.3,6.3Z" transform="translate(-1990.619 1674.172)" fill="#2f2e41"/>
    <path id="Path_234" data-name="Path 234" d="M311.843,320.252c-8.646,0-11.066,10.838-11.066,16.952,0,3.41,1.542,4.629,3.965,5.042l.856-4.564,2,4.76c.681,0,1.4-.01,2.137-.024l.68-1.4,1.515,1.374c6.07.009,10.975.894,10.975-5.19C322.909,331.09,320.787,320.252,311.843,320.252Z" transform="translate(-1972.296 1673.764)" fill="#2f2e41"/>
    <path id="Path_235" data-name="Path 235" d="M376.928,347.839q.082.151.152.311a4.08,4.08,0,0,1-2.513,5.546,3.824,3.824,0,0,1-.388.1l-7.508,19.42a3.169,3.169,0,0,1-3.209,2l-.038-.007-16.273-4.9a3.5,3.5,0,1,1,2.078-6.68l11.514,3.7,8.914-15.8a3.881,3.881,0,0,1-.2-.507,4.08,4.08,0,0,1,7.471-3.181Z" transform="translate(-1998.95 1658.307)" fill="#ffb8b8"/>
    <path id="Path_236" data-name="Path 236" d="M693.247,331.371h-16.9a3.739,3.739,0,0,1-3.734-3.734v-16.9A3.739,3.739,0,0,1,676.344,307h16.9a3.739,3.739,0,0,1,3.734,3.734v16.9A3.739,3.739,0,0,1,693.247,331.371Zm-16.9-23.585a2.951,2.951,0,0,0-2.948,2.948v16.9a2.951,2.951,0,0,0,2.948,2.948h16.9a2.951,2.951,0,0,0,2.948-2.948v-16.9a2.951,2.951,0,0,0-2.948-2.948Z" transform="translate(-2197.966 1681.807)" fill="#3f3d56"/>
    <path id="Path_237" data-name="Path 237" d="M698.148,327.576a3.538,3.538,0,1,1,3.538-3.538,3.538,3.538,0,0,1-3.538,3.538Z" transform="translate(-2211.319 1673.614)" fill="#019ba1"/>
    <path id="Path_238" data-name="Path 238" d="M699.3,346.4h-7.065a1.47,1.47,0,0,1-1.545-1.376,5.112,5.112,0,0,1,10.155,0A1.47,1.47,0,0,1,699.3,346.4Z" transform="translate(-2208.941 1661.475)" fill="#019ba1"/>
    <path id="Path_239" data-name="Path 239" d="M590.077,432.829h-4.819l-2.293-18.588h7.113Z" transform="translate(-2049.808 1700.449)" fill="#ffb8b8"/>
    <path id="Path_240" data-name="Path 240" d="M571.005,458.025H580.3v5.852H565.154A5.852,5.852,0,0,1,571.005,458.025Z" transform="translate(-2038.999 1673.876)" fill="#2f2e41"/>
    <path id="Path_241" data-name="Path 241" d="M663.355,406.423l-3.561,3.248-14.222-12.187,5.255-4.794Z" transform="translate(-2087.806 1713.528)" fill="#ffb8b8"/>
    <path id="Path_242" data-name="Path 242" d="M5.852,0h9.294V5.852H0A5.852,5.852,0,0,1,5.852,0Z" transform="matrix(0.739, -0.674, 0.674, 0.739, -1435.807, 2128.446)" fill="#2f2e41"/>
    <path id="Path_243" data-name="Path 243" d="M818.053,555.78a1.759,1.759,0,0,1-1.747-1.516l-4.2-29.045a16.861,16.861,0,0,1-.059-4.371l4.093-34.975,26.14,2.195-3.945,33.14,14.924,18.609a1.765,1.765,0,0,1-.218,2.441l-3.757,3.273a1.769,1.769,0,0,1-2.507-.185L832.636,528.8a22.224,22.224,0,0,1-4.607-8.869l-2.019-7.873a.59.59,0,0,0-1.128-.046l-2.67,7.714L823.9,553.7a1.773,1.773,0,0,1-1.668,1.854l-4.077.227Z" transform="translate(-2282.524 1573.247)" fill="#2f2e41"/>
    <circle id="Ellipse_18" data-name="Ellipse 18" cx="9.655" cy="9.655" r="9.655" transform="translate(-1459.599 1992.549)" fill="#ffb8b8"/>
    <path id="Path_244" data-name="Path 244" d="M721.264,361a3.953,3.953,0,0,0,5.819,1.7l12.659,7.669-.984-6.486-10.715-6.924A3.974,3.974,0,0,0,721.264,361Z" transform="translate(-2227.285 1652.429)" fill="#ffb8b8"/>
    <path id="Path_245" data-name="Path 245" d="M837.316,423.7h0a31.622,31.622,0,0,1-15.86-4.729,1.962,1.962,0,0,1-.853-2.384l5.019-13.525-1.142-15.936a13.83,13.83,0,0,1,6.885-13.109,12.419,12.419,0,0,1,10.834-.642,13.355,13.355,0,0,1,7.7,8.77l1.611,5.606a34.392,34.392,0,0,1-.644,20.874l-4.668,13.106-.121.072A18.431,18.431,0,0,1,837.316,423.7Z" transform="translate(-2287.709 1642.1)" fill="#019ba1"/>
    <path id="Path_246" data-name="Path 246" d="M738.337,370.914a1.964,1.964,0,0,1,.021-2.207l2.446-3.533a1.969,1.969,0,0,1,2.523-.625l18.141,9.434,20.016-2.007a5.559,5.559,0,1,1,.611,11.09l-18.666.189a11.481,11.481,0,0,1-5.625-1.411l-18.776-10.3A1.974,1.974,0,0,1,738.337,370.914Z" transform="translate(-2237.657 1647.013)" fill="#019ba1"/>
    <path id="Path_247" data-name="Path 247" d="M875.656,495.447a3.953,3.953,0,0,0,.182-6.058l4.714-12.978-6.5,1.38L870.04,489.9a3.974,3.974,0,0,0,5.616,5.546Z" transform="translate(-2317.281 1578.989)" fill="#ffb8b8"/>
    <path id="Path_248" data-name="Path 248" d="M876.621,428.175a1.951,1.951,0,0,1-.675-.12l-4.034-1.48a1.969,1.969,0,0,1-1.238-2.285l4.576-19.929-6.969-18.871a5.559,5.559,0,1,1,10.581-3.377l4.871,18.02a11.48,11.48,0,0,1,.047,5.8l-5.251,20.76a1.965,1.965,0,0,1-1.906,1.483h0Z" transform="translate(-2316.516 1638.713)" fill="#019ba1"/>
    <path id="Path_249" data-name="Path 249" d="M850.538,327.015c.49-2.031.732-3.172,1.216-5.2a3.252,3.252,0,0,0-1.885-3.391,10.952,10.952,0,0,0-4.029-.844,7.051,7.051,0,0,1-3.886-1.259,4.582,4.582,0,0,1-1.142-5.135,5.839,5.839,0,0,1,4.2-3.356,8.335,8.335,0,0,1,5.4.831,3.8,3.8,0,0,1,4.14-1.919,10.25,10.25,0,0,1,4.326,2.235c2.439,1.841,4.941,4.073,5.482,7.108.523,2.931-.964,5.889-2.953,8.08a17.879,17.879,0,0,1-10.331,5.607A3.66,3.66,0,0,1,850.538,327.015Z" transform="translate(-2299.845 1682.001)"/>
    <path id="Path_250" data-name="Path 250" d="M843.366,685.786H767.893a.393.393,0,0,1,0-.786h75.473a.393.393,0,1,1,0,.786Z" transform="translate(-2255.556 1452.394)" fill="#ccc"/>
    <path id="Path_251" data-name="Path 251" d="M314.366,685.786H238.893a.393.393,0,0,1,0-.786h75.473a.393.393,0,1,1,0,.786Z" transform="translate(-1934.5 1452.394)" fill="#ccc"/>
    <g id="Group_53" data-name="Group 53" transform="translate(-1585.164 1925.856)">
      <path id="Path_255" data-name="Path 255" d="M284.084,404.91h19.162l9.581-16.595-9.581-16.594H284.084L274.5,388.315Z" transform="translate(-268.258 -366.414)" fill="#f2f2f2"/>
      <path id="Path_258" data-name="Path 258" d="M289.437,397H265.417a1.393,1.393,0,0,1-1.2-.694L252.2,375.5a1.393,1.393,0,0,1,0-1.389l12.01-20.8a1.393,1.393,0,0,1,1.2-.694h24.019a1.393,1.393,0,0,1,1.2.694l12.01,20.8a1.393,1.393,0,0,1,0,1.389l-12.01,20.8A1.393,1.393,0,0,1,289.437,397Zm-24.019-43.825a.836.836,0,0,0-.722.417l-12.01,20.8a.836.836,0,0,0,0,.833l12.01,20.8a.836.836,0,0,0,.722.417h24.019a.836.836,0,0,0,.722-.417l12.01-20.8a.836.836,0,0,0,0-.833l-12.01-20.8a.836.836,0,0,0-.722-.417Z" transform="translate(-252.019 -352.617)" fill="#ccc"/>
      <path id="Path_260" data-name="Path 260" d="M319.664,398.48a9.161,9.161,0,1,0,9.161,9.161,9.161,9.161,0,0,0-9.161-9.161Zm0,2.748a2.748,2.748,0,1,1-2.748,2.748A2.748,2.748,0,0,1,319.664,401.228Zm0,13.23a6.674,6.674,0,0,1-5.5-2.933c.044-1.832,3.664-2.841,5.5-2.841s5.453,1.009,5.5,2.841A6.685,6.685,0,0,1,319.664,414.459Z" transform="translate(-294.257 -385.739)" fill="#9d9d9d"/>
    </g>
    <g id="Group_52" data-name="Group 52" transform="translate(-1647.125 1925.856)">
      <path id="Path_256" data-name="Path 256" d="M284.084,190.91h19.162l9.581-16.594-9.581-16.594H284.084L274.5,174.315Z" transform="translate(-268.258 -152.125)" fill="#f2f2f2"/>
      <path id="Path_257" data-name="Path 257" d="M289.437,181.958H265.418a1.393,1.393,0,0,1-1.2-.694l-12.01-20.8a1.393,1.393,0,0,1,0-1.389l12.01-20.8a1.393,1.393,0,0,1,1.2-.695h24.019a1.393,1.393,0,0,1,1.2.695l12.01,20.8a1.393,1.393,0,0,1,0,1.389l-12.01,20.8A1.393,1.393,0,0,1,289.437,181.958Zm-24.019-43.825a.836.836,0,0,0-.722.417l-12.01,20.8a.836.836,0,0,0,0,.833l12.01,20.8a.836.836,0,0,0,.722.417h24.019a.836.836,0,0,0,.722-.417l12.01-20.8a.836.836,0,0,0,0-.833l-12.01-20.8a.836.836,0,0,0-.722-.417Z" transform="translate(-252.02 -137.577)" fill="#ccc"/>
      <path id="Path_261" data-name="Path 261" d="M321,190.455a5,5,0,1,0-7.24,6.9q.082.086.168.168l7.242,7.242,7.071-7.072A5.122,5.122,0,0,0,321,190.455Z" transform="translate(-295.613 -174.647)" fill="#9d9d9d"/>
    </g>
    <g id="Group_54" data-name="Group 54" transform="translate(-1523.202 1925.856)">
      <path id="Path_254" data-name="Path 254" d="M284.084,620.91h19.162l9.581-16.594-9.581-16.595H284.084L274.5,604.315Z" transform="translate(-268.258 -582.147)" fill="#f2f2f2"/>
      <path id="Path_259" data-name="Path 259" d="M289.437,612.038H265.418a1.393,1.393,0,0,1-1.2-.694l-12.01-20.8a1.393,1.393,0,0,1,0-1.389l12.01-20.8a1.393,1.393,0,0,1,1.2-.695h24.019a1.393,1.393,0,0,1,1.2.695l12.01,20.8a1.393,1.393,0,0,1,0,1.389l-12.01,20.8A1.393,1.393,0,0,1,289.437,612.038Zm-24.019-43.825a.836.836,0,0,0-.722.417l-12.01,20.8a.836.836,0,0,0,0,.833l12.01,20.8a.836.836,0,0,0,.722.417h24.019a.836.836,0,0,0,.722-.417l12.01-20.8a.836.836,0,0,0,0-.833l-12.01-20.8a.836.836,0,0,0-.722-.417Z" transform="translate(-252.019 -567.657)" fill="#ccc"/>
      <path id="Path_262" data-name="Path 262" d="M334.043,612.13c0,3.258-5.9,10.41-5.9,10.41s-5.9-7.152-5.9-10.41a5.9,5.9,0,1,1,11.8-.01Z" transform="translate(-302.736 -595.512)" fill="#9d9d9d"/>
      <circle id="Ellipse_19" data-name="Ellipse 19" cx="2.318" cy="2.318" r="2.318" transform="translate(23.09 14.301)" fill="#fff"/>
      <circle id="Ellipse_20" data-name="Ellipse 20" cx="2.318" cy="2.318" r="2.318" transform="translate(22.879 28.987)" fill="#9d9d9d"/>
    </g>
  </g>
</svg>
