<svg id="securitydark" xmlns="http://www.w3.org/2000/svg" width="22.642" height="27.869" viewBox="0 0 22.642 27.869">
  <path id="Path_31" data-name="Path 31" d="M164.185,38.455h-.866V35.114a6.961,6.961,0,1,0-13.919,0v3.31h-.866a3.512,3.512,0,0,0-3.5,3.5V52.374a3.512,3.512,0,0,0,3.5,3.5h15.651a3.512,3.512,0,0,0,3.5-3.5V41.919a3.485,3.485,0,0,0-3.5-3.464Zm-13.053,0V35.114a5.229,5.229,0,1,1,10.454,0v3.31H151.132v.031Zm14.785,13.919a1.729,1.729,0,0,1-1.732,1.732H148.534a1.729,1.729,0,0,1-1.732-1.732V41.919a1.729,1.729,0,0,1,1.732-1.732h15.651a1.729,1.729,0,0,1,1.732,1.732Zm-7.826-6.959a1.741,1.741,0,0,1-.866,1.516h0v2.846a.866.866,0,1,1-1.732,0V46.93h0a1.742,1.742,0,0,1,.866-3.248,1.691,1.691,0,0,1,1.732,1.732Z" transform="translate(-145.039 -28)" fill="#2b2b2b"/>
</svg>
