<svg id="security1" xmlns="http://www.w3.org/2000/svg" width="253.265" height="176.21" viewBox="0 0 253.265 176.21">
  <ellipse id="Ellipse_32" data-name="Ellipse 32" cx="50.461" cy="3.833" rx="50.461" ry="3.833" transform="translate(0 168.545)" fill="#e6e6e6"/>
  <path id="Path_334" data-name="Path 334" d="M324.272,239.3c8.782-3.735,19.72-1.369,30.4.274.1-1.989,1.3-4.41.042-5.8-1.533-1.686-1.392-3.457-.47-5.239,2.359-4.556-1.021-9.4-4.434-13.434a7.559,7.559,0,0,0-6.309-2.648l-6.323.452a7.572,7.572,0,0,0-6.724,5.412h0c-1.51,2.053-2.318,4.1-1.809,6.138-2.261,1.545-2.641,3.411-1.625,5.514a3.17,3.17,0,0,1-.039,3.866,17.85,17.85,0,0,0-2.654,5.272Z" transform="translate(-285.7 -200.204)" fill="#2f2e41"/>
  <path id="Path_335" data-name="Path 335" d="M583.485,626.255H404.5a6,6,0,0,1-6-6h0a808.981,808.981,0,0,1,190.987,0h0a6,6,0,0,1-6,6Z" transform="translate(-336.222 -473.925)" fill="#2f2e41"/>
  <path id="Path_336" data-name="Path 336" d="M589.487,361.819,398.5,361.466l22.135-37.244.106-.176V241.963a7.586,7.586,0,0,1,7.587-7.587H558.6a7.586,7.586,0,0,1,7.587,7.587V324.61Z" transform="translate(-336.222 -215.137)" fill="#3f3d56"/>
  <path id="Path_337" data-name="Path 337" d="M486.084,250.957a2.474,2.474,0,0,0-2.471,2.471v74.841a2.474,2.474,0,0,0,2.471,2.471H617.762a2.474,2.474,0,0,0,2.471-2.471V253.428a2.474,2.474,0,0,0-2.471-2.471Z" transform="translate(-394.151 -226.421)" fill="#fff"/>
  <path id="Path_338" data-name="Path 338" d="M476.286,531.718a1.062,1.062,0,0,0-.962.616l-6.82,14.827a1.059,1.059,0,0,0,.962,1.5H612.894a1.059,1.059,0,0,0,.947-1.533L606.428,532.3a1.054,1.054,0,0,0-.947-.585Z" transform="translate(-383.802 -417.514)" fill="#2f2e41"/>
  <circle id="Ellipse_33" data-name="Ellipse 33" cx="1.589" cy="1.589" r="1.589" transform="translate(155.653 20.122)" fill="#fff"/>
  <path id="Path_339" data-name="Path 339" d="M645.8,593.619a1.061,1.061,0,0,0-1.022.784l-1.711,6.354a1.059,1.059,0,0,0,1.022,1.335h32.536a1.059,1.059,0,0,0,1-1.406l-2.2-6.354a1.06,1.06,0,0,0-1-.713Z" transform="translate(-502.653 -459.646)" fill="#2f2e41"/>
  <path id="Path_340" data-name="Path 340" d="M409.858,337.135v1.412H264.306l.11-.176v-1.236Z" transform="translate(-179.893 -229.462)" fill="#2f2e41"/>
  <circle id="Ellipse_34" data-name="Ellipse 34" cx="24.712" cy="24.712" r="24.712" transform="translate(201.194)" fill="#019ba1"/>
  <path id="Path_341" data-name="Path 341" d="M896.245,252.873H875.77a1.413,1.413,0,0,1-1.412-1.412V239.1a1.414,1.414,0,0,1,1.412-1.412h20.475a1.414,1.414,0,0,1,1.412,1.412v12.356A1.413,1.413,0,0,1,896.245,252.873ZM875.77,239.1V251.46h20.477V239.1Z" transform="translate(-660.102 -217.394)" fill="#fff"/>
  <path id="Path_342" data-name="Path 342" d="M903.647,215.03H890.938v-5.648c0-4.091,2.672-7.061,6.354-7.061s6.354,2.969,6.354,7.061Zm-11.3-1.412h9.885v-4.236c0-3.326-2.032-5.648-4.942-5.648s-4.942,2.323-4.942,5.648Z" transform="translate(-671.387 -193.319)" fill="#fff"/>
  <circle id="Ellipse_35" data-name="Ellipse 35" cx="1.412" cy="1.412" r="1.412" transform="translate(224.494 26.124)" fill="#fff"/>
  <path id="Path_343" data-name="Path 343" d="M635.93,359.454H534.164a1.887,1.887,0,0,1-1.885-1.885V332.326a1.887,1.887,0,0,1,1.885-1.885H635.93a1.887,1.887,0,0,1,1.885,1.885V357.57A1.887,1.887,0,0,1,635.93,359.454ZM534.164,331.2a1.132,1.132,0,0,0-1.131,1.131V357.57a1.132,1.132,0,0,0,1.131,1.131H635.93a1.132,1.132,0,0,0,1.131-1.131V332.326a1.132,1.132,0,0,0-1.131-1.131Z" transform="translate(-427.275 -280.521)" fill="#e6e6e6"/>
  <circle id="Ellipse_36" data-name="Ellipse 36" cx="7.677" cy="7.677" r="7.677" transform="translate(115.024 55.782)" fill="#e6e6e6"/>
  <path id="Path_344" data-name="Path 344" d="M640.476,356.8a1.279,1.279,0,0,0,0,2.559h60.317a1.279,1.279,0,0,0,0-2.559Z" transform="translate(-500.046 -298.464)" fill="#e6e6e6"/>
  <path id="Path_345" data-name="Path 345" d="M640.476,380.842a1.279,1.279,0,0,0,0,2.559h25.954a1.279,1.279,0,1,0,0-2.559Z" transform="translate(-500.046 -314.824)" fill="#e6e6e6"/>
  <path id="Path_346" data-name="Path 346" d="M426.424,359.088l-18.812,10-.238-8.335a55.713,55.713,0,0,0,17.383-5.715l1.968-4.861a3.3,3.3,0,0,1,5.6-.855h0a3.3,3.3,0,0,1-.29,4.493Z" transform="translate(-342.261 -292.553)" fill="#ffb8b8"/>
  <path id="Path_347" data-name="Path 347" d="M322.82,536.388h0a3.7,3.7,0,0,1,.469-2.99l4.133-6.342a7.222,7.222,0,0,1,9.369-2.472h0c-1.737,2.956-1.495,5.55.6,7.8a37.567,37.567,0,0,0-8.922,6.082,3.7,3.7,0,0,1-5.648-2.082Z" transform="translate(-284.624 -412.109)" fill="#2f2e41"/>
  <path id="Path_348" data-name="Path 348" d="M395.817,478.1h0a7.091,7.091,0,0,1-6.027,3.443l-27.454.208-1.191-6.906,12.145-3.572-10.24-7.858,11.192-13.1,20.328,18.947A7.091,7.091,0,0,1,395.817,478.1Z" transform="translate(-310.798 -362.108)" fill="#2f2e41"/>
  <path id="Path_349" data-name="Path 349" d="M325.35,484.725h-6.43c-5.773-39.57-11.649-79.251,5.715-94.061L345.115,394,342.5,411.381l-11.43,13.1Z" transform="translate(-278.098 -321.51)" fill="#2f2e41"/>
  <path id="Path_350" data-name="Path 350" d="M340.908,689h0a3.7,3.7,0,0,1-2.99-.469l-6.981-.938a7.222,7.222,0,0,1-2.472-9.369h0c2.956,1.737,5.55,1.494,7.8-.6,1.592,3.215,4.216,3.019,6.722,5.728A3.7,3.7,0,0,1,340.908,689Z" transform="translate(-288.003 -516.822)" fill="#2f2e41"/>
  <path id="Path_351" data-name="Path 351" d="M373.8,272.886l-11.906-2.858c1.977-4.048,2.14-8.552,1.191-13.335l8.1-.238A62.162,62.162,0,0,0,373.8,272.886Z" transform="translate(-311.305 -230.164)" fill="#ffb8b8"/>
  <path id="Path_352" data-name="Path 352" d="M361.909,332.15c-8.667,5.906-14.792.2-19.465-8.6.649-5.385-.4-11.83-2.35-18.832a12.819,12.819,0,0,1,7.827-15.458h0l10.24,4.286c8.695,7.087,10.406,14.764,7.144,22.86Z" transform="translate(-296.144 -252.492)" fill="#019ba1"/>
  <path id="Path_353" data-name="Path 353" d="M285.785,305.735l-9.525,5,16.907,10,2.353,5.8a3.078,3.078,0,0,1-1.849,4.066h0a3.078,3.078,0,0,1-4.076-2.729l-.238-4.044-21.489-7.091a5.025,5.025,0,0,1-3.153-3.07h0a5.025,5.025,0,0,1,1.885-5.845l17.28-11.855Z" transform="translate(-244.962 -257.06)" fill="#ffb8b8"/>
  <path id="Path_354" data-name="Path 354" d="M333.742,301.33c-3.973-1.741-7.585.15-12.145,1.667l-.714-12.621c4.527-2.413,8.844-3.064,12.859-1.191Z" transform="translate(-283.394 -251.702)" fill="#019ba1"/>
  <circle id="Ellipse_37" data-name="Ellipse 37" cx="7.602" cy="7.602" r="7.602" transform="translate(47.499 17.339)" fill="#ffb8b8"/>
  <path id="Path_355" data-name="Path 355" d="M368.427,234.687c-7.526.737-13.262-.494-16.927-4v-2.823h16.288Z" transform="translate(-304.232 -210.705)" fill="#2f2e41"/>
</svg>
