<svg xmlns="http://www.w3.org/2000/svg" width="243.911" height="220.023" viewBox="0 0 243.911 220.023">
  <g id="Group_83" data-name="Group 83" transform="translate(-385.259 -718.654)">
    <g id="Group_78" data-name="Group 78" transform="translate(-4984.768 2326.5)">
      <path id="Path_565" data-name="Path 565" d="M173.385,378.251l-.7-11.9L218.261,358l1.027,17.565Z" transform="translate(5351.973 -1799.961)" fill="#ffb8b8"/>
      <path id="Path_566" data-name="Path 566" d="M14.476,0h22.99V14.475H0A14.475,14.475,0,0,1,14.476,0Z" transform="translate(5526.717 -1456.761) rotate(86.655)" fill="#2f2e41"/>
      <path id="Path_567" data-name="Path 567" d="M192.462,377.884l-7.57,9.209L145.768,362.28l11.171-13.592Z" transform="translate(5352.717 -1799.703)" fill="#ffb8b8"/>
      <path id="Path_568" data-name="Path 568" d="M14.476,0h22.99V14.475H0A14.475,14.475,0,0,1,14.476,0Z" transform="matrix(0.635, -0.773, 0.773, 0.635, 5520.382, -1397.015)" fill="#2f2e41"/>
      <path id="Path_569" data-name="Path 569" d="M443.738,577.742l-5.173,24.386a3.89,3.89,0,0,0,3.742,4.7l50.853.82a3.89,3.89,0,0,0,3.893-4.565L492.6,577.873a3.89,3.89,0,0,0-3.83-3.214H447.542A3.889,3.889,0,0,0,443.738,577.742Z" transform="translate(5079.658 -2042.389)" fill="#2f2e41"/>
      <path id="Path_570" data-name="Path 570" d="M450.8,586.108s-49.591-31.116-59.314-14.586c-4.862,8.265-2.431,16.287,1.215,22.243a33.674,33.674,0,0,0,14,12.535l40.2,19.675,14.585-15.558-9.724-8.751Z" transform="translate(5081.032 -2042.168)" fill="#2f2e41"/>
      <path id="Path_571" data-name="Path 571" d="M478.172,581.521s64.176-18.475,51.535,16.53-60.286,21.392-60.286,21.392l-4.862-14.585,16.53-11.668Z" transform="translate(5078.938 -2042.443)" fill="#2f2e41"/>
      <path id="Path_572" data-name="Path 572" d="M471.947,582.9a128.341,128.341,0,0,1-29.421-3.876l-.284-.078-13.327-61.3a22.583,22.583,0,0,1,14.52-26.2,78.236,78.236,0,0,1,49.882-1h0a22.821,22.821,0,0,1,15.2,27l-14.885,61.449-.21.1C487.238,581.924,479.5,582.9,471.947,582.9Z" transform="translate(5079.938 -2039.962)" fill="#ccc"/>
      <path id="Path_573" data-name="Path 573" d="M454.757,589.732a9.778,9.778,0,0,1,14.075-5.165l26.241-22.777,2.374,17.9-25.283,18.885a9.831,9.831,0,0,1-17.408-8.842Z" transform="translate(5079.225 -2042.033)" fill="#ffb8b8"/>
      <path id="Path_574" data-name="Path 574" d="M480.3,592.754a4.4,4.4,0,0,1-1.261-.185,4.329,4.329,0,0,1-2.881-2.739l-3.167-8.974a4.348,4.348,0,0,1,1.266-4.767l35.753-21.464-14.093-62.874.358-.086c.146-.036,14.586-3.323,20.5,12.456,4.144,11.051,19.478,35.08,18.4,51.318a14.473,14.473,0,0,1-11.982,13.348l-40.244,23.058a4.334,4.334,0,0,1-2.649.909Z" transform="translate(5078.712 -2040.086)" fill="#ccc"/>
      <path id="Path_575" data-name="Path 575" d="M483.423,587.539a9.778,9.778,0,0,0-14.075-5.165L443.107,559.6l-2.374,17.9,25.283,18.885a9.831,9.831,0,0,0,17.408-8.842Z" transform="translate(5079.596 -2041.972)" fill="#ffb8b8"/>
      <path id="Path_576" data-name="Path 576" d="M459.962,592.754a4.331,4.331,0,0,1-2.649-.909l-43.161-21.113a14.473,14.473,0,0,1-11.981-13.348c-1.082-16.238,17.17-42.211,21.313-53.262,5.917-15.779,20.357-12.494,20.5-12.457l.358.086L427.334,556.57,466,576.09a4.348,4.348,0,0,1,1.266,4.767L464.1,589.83a4.33,4.33,0,0,1-2.88,2.739A4.41,4.41,0,0,1,459.962,592.754Z" transform="translate(5080.663 -2040.086)" fill="#ccc"/>
      <path id="Path_577" data-name="Path 577" d="M511.906,603.919h-86.54a6.814,6.814,0,0,1-6.807-6.807V549.466a6.814,6.814,0,0,1,6.807-6.807h86.54a6.815,6.815,0,0,1,6.806,6.807v47.646A6.814,6.814,0,0,1,511.906,603.919Z" transform="translate(5080.208 -2041.504)" fill="#019ba1"/>
      <circle id="Ellipse_73" data-name="Ellipse 73" cx="5.834" cy="5.834" r="5.834" transform="translate(5543.011 -1474.049)" fill="#fff"/>
      <path id="Path_579" data-name="Path 579" d="M305.121,593.609a118.67,118.67,0,0,1,9.822-37.453q2.217-4.952,4.879-9.686a.723.723,0,0,0-1.248-.729,120.312,120.312,0,0,0-13.387,36.933q-1.005,5.429-1.511,10.935c-.086.926,1.36.92,1.445,0Z" transform="translate(5083.384 -2041.58)" fill="#e6e6e6"/>
      <circle id="Ellipse_74" data-name="Ellipse 74" cx="9.154" cy="9.154" r="9.154" transform="translate(5397.553 -1511.1)" fill="#019ba1"/>
      <path id="Path_580" data-name="Path 580" d="M306.1,594.34a76.985,76.985,0,0,1,6.372-24.3q1.438-3.212,3.166-6.283a.469.469,0,0,0-.81-.473,78.046,78.046,0,0,0-8.685,23.96q-.652,3.522-.98,7.094C305.105,594.941,306.043,594.937,306.1,594.34Z" transform="translate(5083.342 -2042.068)" fill="#e6e6e6"/>
      <circle id="Ellipse_75" data-name="Ellipse 75" cx="5.939" cy="5.939" r="5.939" transform="translate(5395.311 -1488.682)" fill="#019ba1"/>
      <path id="Path_581" data-name="Path 581" d="M304.561,593.789a76.986,76.986,0,0,1-9.92-23.077q-.842-3.417-1.369-6.9a.469.469,0,0,0-.93.125,78.051,78.051,0,0,0,7.889,24.234q1.652,3.178,3.59,6.2C304.147,594.873,304.884,594.293,304.561,593.789Z" transform="translate(5083.697 -2042.078)" fill="#e6e6e6"/>
      <circle id="Ellipse_76" data-name="Ellipse 76" cx="5.939" cy="5.939" r="5.939" transform="translate(5370.093 -1489.099)" fill="#019ba1"/>
      <path id="Path_582" data-name="Path 582" d="M286.159,599.6V587.932a4.381,4.381,0,0,1,4.376-4.376h27.226a4.381,4.381,0,0,1,4.376,4.376V599.6a4.381,4.381,0,0,1-4.376,4.376H290.535A4.381,4.381,0,0,1,286.159,599.6Z" transform="translate(5083.868 -2042.634)" fill="#f2f2f2"/>
      <g id="Group_79" data-name="Group 79" transform="translate(5420.751 -1473.596)">
        <path id="Path_583" data-name="Path 583" d="M586.251,613.713c0,6.4-5.184,9.3-11.58,9.3s-11.58-2.907-11.58-9.3,2.574-13.857,11.58-11.284C583.677,598.57,586.251,607.318,586.251,613.713Z" transform="translate(-563.091 -589.345)" fill="#ff6584"/>
        <path id="Path_584" data-name="Path 584" d="M574.269,605.088a1.851,1.851,0,0,1-1.839-1.613c-.383-3.191-2.5-9.44-3.387-11.978h0a1.656,1.656,0,0,1,.214-1.523,1.737,1.737,0,0,1,2.59-.187,1.658,1.658,0,0,1,.455,1.241c-.174,3.258,2.2,8.522,3.632,11.371a1.855,1.855,0,0,1-1.468,2.68,1.726,1.726,0,0,1-.2.011Z" transform="translate(-563.253 -589.008)" fill="#3f3d56"/>
        <path id="Path_585" data-name="Path 585" d="M582.961,597.893c4.02-3.29.866-10.023-4.165-8.73a4.063,4.063,0,0,0-1.812.967c-3.086,2.915-3.564,10.374-3.564,10.374S578.869,601.242,582.961,597.893Z" transform="translate(-563.377 -589)" fill="#3f3d56"/>
      </g>
    </g>
    <g id="Group_81" data-name="Group 81" transform="translate(535.57 718.654)">
      <ellipse id="ab6171fa-7d69-4734-b81c-8dff60f9761b" cx="21.805" cy="21.805" rx="21.805" ry="21.805" transform="translate(9.151 9.344)" fill="#ffb9b9"/>
      <path id="Path_500" data-name="Path 500" d="M245.093,244.855a6.069,6.069,0,0,1,3.8-1.644c1.41.045,2.84,1.319,2.548,2.7A22.408,22.408,0,0,1,278.409,235.8c3.5,1.236,6.941,3.71,7.746,7.338a6.609,6.609,0,0,0,.832,2.709,3.092,3.092,0,0,0,3.291.834l.035-.01a1.03,1.03,0,0,1,1.245,1.454l-.992,1.849a7.947,7.947,0,0,0,3.786-.081,1.029,1.029,0,0,1,1.093,1.6,17.943,17.943,0,0,1-14.307,7.354c-3.962-.024-7.965-1.39-11.82-.479a10.268,10.268,0,0,0-6.906,14.414c-1.185-1.3-3.474-.989-4.686.281a6.427,6.427,0,0,0-1.4,4.918,22.817,22.817,0,0,0,2.343,7.659,22.9,22.9,0,0,1-13.573-40.786Z" transform="translate(-236.548 -234.519)" fill="#2f2e41"/>
    </g>
  </g>
</svg>
