<svg xmlns="http://www.w3.org/2000/svg" width="290.178" height="296.043" viewBox="0 0 290.178 296.043">
  <g id="Group_82" data-name="Group 82" transform="translate(-1197.279 -653.957)">
    <path id="Path_485" data-name="Path 485" d="M33.237,24.03a7.468,7.468,0,1,1-2.343,2.908L11.358,10.672l-2.6,3.087-1.169-.782-1.3,1.544,1.069.9-1.3,1.544-1.662-1.4.8-.95-1.781-1.5-.8.95L0,11.863l1.2-1.425.95.8,1.3-1.544-1.187-1,2.4-2.85-2.85-2.4L4.716,0Zm4.878,10.912a4.941,4.941,0,1,0-5.343-4.5,4.941,4.941,0,0,0,5.343,4.5Z" transform="translate(1216.023 763.65) rotate(30)" fill="#2b3333"/>
    <g id="Group_61" data-name="Group 61" transform="translate(273.11 2352.715)">
      <path id="Path_419" data-name="Path 419" d="M827.016,662.834c-8.372-7.074-13.458-18.25-12.124-29.129s9.594-20.881,20.308-23.191,22.929,4.085,26.183,14.551c1.791-20.179,3.855-41.2,14.583-58.388,9.714-15.56,26.54-26.694,44.775-28.686s37.434,5.531,48.807,19.924,14.157,35.317,6.192,51.841c-5.868,12.173-16.678,21.232-28,28.6A180.735,180.735,0,0,1,824.125,665.4Z" transform="translate(234.063 -2069.941)" fill="#f2f2f2"/>
      <path id="Path_420" data-name="Path 420" d="M967.732,545.873A298.224,298.224,0,0,0,880.106,664.36c-.836,2.048,2.49,2.94,3.317.914A294.9,294.9,0,0,1,970.163,548.3c1.717-1.4-.729-3.819-2.432-2.432Z" transform="translate(217.848 -2071.874)" fill="#fff"/>
      <path id="Path_425" data-name="Path 425" d="M590.106,496.039H580.89l-4.384-35.544h13.6Z" transform="translate(417.236 -1908.011)" fill="#ffb8b8"/>
      <path id="Path_426" data-name="Path 426" d="M569.885,504.28h17.772v11.19H558.695a11.19,11.19,0,0,1,11.19-11.19Z" transform="translate(421.659 -1918.885)" fill="#2f2e41"/>
      <path id="Path_427" data-name="Path 427" d="M651.106,496.039H641.89l-4.384-35.544h13.6Z" transform="translate(402.086 -1908.011)" fill="#ffb8b8"/>
      <path id="Path_428" data-name="Path 428" d="M630.885,504.28h17.772v11.19H619.7a11.19,11.19,0,0,1,11.19-11.19Z" transform="translate(406.51 -1918.885)" fill="#2f2e41"/>
      <path id="Path_429" data-name="Path 429" d="M697.637,496.138a8.075,8.075,0,0,1,3.39-11.909l31.326-86.34,15.414,8.413L712,488.812a8.118,8.118,0,0,1-14.363,7.327Z" transform="translate(263.476 -2035.225)" fill="#ffb8b8"/>
      <path id="Path_430" data-name="Path 430" d="M810.411,515.98a8.075,8.075,0,0,1-2.175-12.189l-9.7-91.333,17.542.8,4.033,89.838a8.119,8.119,0,0,1-9.7,12.883Z" transform="translate(238.073 -2038.843)" fill="#ffb8b8"/>
      <circle id="Ellipse_46" data-name="Ellipse 46" cx="18.461" cy="18.461" r="18.461" transform="translate(1002.039 -1690.249)" fill="#ffb8b8"/>
      <path id="Path_431" data-name="Path 431" d="M795.79,488.556H740.133l.067-.433c.1-.647,9.919-64.972,2.677-86.016a8.879,8.879,0,0,1,4.562-10.962h0c10.352-4.875,30.222-10.877,46.993,3.69a21.223,21.223,0,0,1,7.11,17.586Z" transform="translate(252.577 -2032.192)" fill="#019ba1"/>
      <path id="Path_432" data-name="Path 432" d="M746.075,434.7l-25.057-5.083,11.745-27.833a10.521,10.521,0,0,1,20.374,5.26Z" transform="translate(257.324 -2034.231)" fill="#019ba1"/>
      <path id="Path_433" data-name="Path 433" d="M796.484,444.78l-1.506-34.532c-1.142-6.491,2.574-12.628,8.289-13.631s11.3,3.5,12.446,10.042l5.662,32.267Z" transform="translate(239.007 -2034.874)" fill="#019ba1"/>
      <path id="Path_434" data-name="Path 434" d="M792.948,517.049c8.955,34.107,9.933,77.472,7.516,124.774l-12.026-1.5-21.8-90.2-12.026,91.7-13.53-.752c-4.042-49.631-7.978-92.239-1.5-120.264Z" transform="translate(253.567 -2064.818)" fill="#2f2e41"/>
      <path id="Path_435" data-name="Path 435" d="M781.947,357.41c-3.444,3.669-9.84,1.7-10.289-3.313a6.051,6.051,0,0,1,.008-1.169c.232-2.22,1.514-4.236,1.207-6.58a3.45,3.45,0,0,0-.631-1.615c-2.745-3.675-9.187,1.644-11.777-1.683-1.588-2.04.279-5.252-.94-7.532-1.609-3.009-6.373-1.525-9.361-3.173-3.324-1.834-3.125-6.934-.937-10.037,2.669-3.784,7.348-5.8,11.969-6.093s9.21.958,13.524,2.639c4.9,1.91,9.762,4.55,12.779,8.86,3.668,5.241,4.021,12.288,2.187,18.417C788.568,349.86,784.759,354.414,781.947,357.41Z" transform="translate(250.718 -2014.931)" fill="#2f2e41"/>
    </g>
  </g>
</svg>
