<svg xmlns="http://www.w3.org/2000/svg" width="302.607" height="236.782" viewBox="0 0 302.607 236.782">
  <g id="Group_59" data-name="Group 59" transform="translate(0 0)">
    <path id="Path_421" data-name="Path 421" d="M187.54,701.63c-15.3-12.927-24.591-33.348-22.154-53.228s17.531-38.156,37.11-42.378,41.9,7.464,47.844,26.59c3.273-36.873,7.044-75.292,26.648-106.693,17.751-28.433,48.5-48.778,81.818-52.418s68.4,10.107,89.185,36.407,25.869,64.535,11.315,94.729c-10.722,22.243-30.475,38.8-51.172,52.264C342.1,699.869,260.2,717.788,182.257,706.319" transform="translate(-165 -472.927)" fill="#f2f2f2"/>
    <path id="Path_422" data-name="Path 422" d="M372.419,484.373a540.35,540.35,0,0,0-75.3,74.777A541.923,541.923,0,0,0,212.3,700.886c-1.527,3.743,4.55,5.372,6.06,1.671a538.882,538.882,0,0,1,158.5-213.74c3.138-2.555-1.332-6.978-4.444-4.444Z" transform="translate(-122.378 -472.927)" fill="#fff"/>
  </g>
</svg>
