<svg id="signing" xmlns="http://www.w3.org/2000/svg" width="221.999" height="132.715" viewBox="0 0 221.999 132.715">
  <path id="Path_356" data-name="Path 356" d="M818.869,580.165a11.471,11.471,0,0,1-4.116-9.889,9.273,9.273,0,0,1,6.894-7.873,7.806,7.806,0,0,1,8.889,4.94c.608-6.85,1.309-13.988,4.951-19.822a20.992,20.992,0,0,1,15.2-9.738,18.835,18.835,0,0,1,16.569,6.764,17.094,17.094,0,0,1,2.1,17.6c-1.992,4.132-5.662,7.208-9.507,9.71a61.356,61.356,0,0,1-41.964,9.18Z" transform="translate(-648.901 -448.941)" fill="#f2f2f2"/>
  <path id="Path_357" data-name="Path 357" d="M909.765,545.6a101.241,101.241,0,0,0-29.747,40.224c-.284.7.845,1,1.126.31a100.114,100.114,0,0,1,29.447-39.709c.583-.475-.247-1.3-.826-.826Z" transform="translate(-697.531 -454.738)" fill="#fff"/>
  <path id="Path_358" data-name="Path 358" d="M236.465,531.285a15.756,15.756,0,0,0,5.653-13.582c-.622-5.073-4.473-9.736-9.469-10.814s-10.691,1.9-12.208,6.785c-.835-9.409-1.8-19.212-6.8-27.225a28.833,28.833,0,0,0-20.878-13.375,25.87,25.87,0,0,0-22.758,9.29,23.478,23.478,0,0,0-2.887,24.172c2.736,5.676,7.776,9.9,13.058,13.336a84.273,84.273,0,0,0,57.637,12.609" transform="translate(-165 -400.714)" fill="#f2f2f2"/>
  <path id="Path_359" data-name="Path 359" d="M213.461,483.809a137.882,137.882,0,0,1,19.215,19.081,138.283,138.283,0,0,1,21.643,36.167c.39.955-1.161,1.371-1.546.426a137.507,137.507,0,0,0-40.446-54.54c-.8-.652.34-1.781,1.134-1.134Z" transform="translate(-200.047 -408.676)" fill="#fff"/>
  <path id="Path_360" data-name="Path 360" d="M517.638,322.365H424.5V226.8a36.914,36.914,0,0,1,36.872-36.872h19.393A36.914,36.914,0,0,1,517.638,226.8Z" transform="translate(-358.283 -189.931)" fill="#f2f2f2"/>
  <path id="Path_361" data-name="Path 361" d="M498.244,322.368H424.5V226.806a36.587,36.587,0,0,1,7.042-21.675c.169-.231.338-.459.513-.684a36.865,36.865,0,0,1,7.848-7.617c.168-.122.337-.243.509-.363a36.785,36.785,0,0,1,8.031-4.2c.169-.064.34-.128.512-.189a36.751,36.751,0,0,1,7.938-1.872c.168-.023.34-.041.512-.059a37.328,37.328,0,0,1,7.937,0c.172.018.344.036.514.059a36.743,36.743,0,0,1,7.936,1.872c.172.061.343.125.513.19a36.693,36.693,0,0,1,7.937,4.138c.171.118.343.238.512.358a37.251,37.251,0,0,1,4.691,3.971,36.821,36.821,0,0,1,3.247,3.713c.174.225.343.453.512.683a36.587,36.587,0,0,1,7.042,21.676Z" transform="translate(-358.283 -189.934)" fill="#ccc"/>
  <circle id="Ellipse_38" data-name="Ellipse 38" cx="4.083" cy="4.083" r="4.083" transform="translate(129.882 81.527)" fill="#019ba1"/>
  <path id="Path_362" data-name="Path 362" d="M581.123,472.562h-3.128l-1.488-12.067h4.617Z" transform="translate(-429.398 -342.99)" fill="#ffb8b8"/>
  <path id="Path_363" data-name="Path 363" d="M562.494,504.28h6.033v3.8H558.7A3.8,3.8,0,0,1,562.494,504.28Z" transform="translate(-416.132 -375.602)" fill="#2f2e41"/>
  <path id="Path_364" data-name="Path 364" d="M642.123,472.562h-3.128l-1.488-12.067h4.617Z" transform="translate(-474.832 -342.99)" fill="#ffb8b8"/>
  <path id="Path_365" data-name="Path 365" d="M623.494,504.28h6.033v3.8H619.7A3.8,3.8,0,0,1,623.494,504.28Z" transform="translate(-461.566 -375.602)" fill="#2f2e41"/>
  <path id="Path_366" data-name="Path 366" d="M696.717,431.243a2.741,2.741,0,0,1,1.151-4.043L708.5,397.89l5.233,2.856-12.142,28.01a2.756,2.756,0,0,1-4.876,2.487Z" transform="translate(-560.685 -344.825)" fill="#ffb8b8"/>
  <path id="Path_367" data-name="Path 367" d="M802.565,447.6a2.741,2.741,0,0,1-.738-4.138l-3.294-31.006,5.955.272,1.369,30.5a2.756,2.756,0,0,1-3.292,4.373Z" transform="translate(-636.873 -355.675)" fill="#ffb8b8"/>
  <circle id="Ellipse_39" data-name="Ellipse 39" cx="6.267" cy="6.267" r="6.267" transform="translate(149.925 35.102)" fill="#ffb8b8"/>
  <path id="Path_368" data-name="Path 368" d="M759.028,420.6H740.133l.023-.147c.034-.22,3.367-22.057.909-29.2a3.014,3.014,0,0,1,1.549-3.721h0c3.514-1.655,10.26-3.693,15.953,1.253a7.2,7.2,0,0,1,2.414,5.97Z" transform="translate(-593.375 -335.727)" fill="#019ba1"/>
  <path id="Path_369" data-name="Path 369" d="M729.524,407.741l-8.506-1.726,3.987-9.449a3.572,3.572,0,1,1,6.917,1.786Z" transform="translate(-579.138 -341.843)" fill="#019ba1"/>
  <path id="Path_370" data-name="Path 370" d="M795.353,412.876l-.511-11.723a3.6,3.6,0,1,1,7.039-1.218l1.922,10.954Z" transform="translate(-634.071 -343.773)" fill="#019ba1"/>
  <path id="Path_371" data-name="Path 371" d="M755.428,517.049c3.04,11.579,3.372,26.3,2.552,42.358l-4.083-.51-7.4-30.621-4.083,31.131-4.593-.255c-1.372-16.849-2.708-31.313-.51-40.827Z" transform="translate(-590.404 -433.578)" fill="#2f2e41"/>
  <path id="Path_372" data-name="Path 372" d="M759.272,330.172a2.024,2.024,0,0,1-3.493-1.125,2.054,2.054,0,0,1,0-.4,9.2,9.2,0,0,0,.41-2.234,1.171,1.171,0,0,0-.214-.548c-.932-1.248-3.119.558-4-.571-.539-.693.095-1.783-.319-2.557-.546-1.022-2.164-.518-3.178-1.077-1.129-.622-1.061-2.354-.318-3.407a5.36,5.36,0,0,1,4.063-2.069,10.9,10.9,0,0,1,4.591.9,9.175,9.175,0,0,1,4.338,3.008,7.343,7.343,0,0,1,.742,6.252A11.786,11.786,0,0,1,759.272,330.172Z" transform="translate(-598.95 -283.96)" fill="#2f2e41"/>
  <path id="Path_373" data-name="Path 373" d="M454.191,707.8H265.8a.3.3,0,0,1,0-.608H454.191a.3.3,0,1,1,0,.608Z" transform="translate(-239.851 -575.202)" fill="#3f3d56"/>
  <path id="Path_374" data-name="Path 374" d="M532.331,374.748H499.159a1.65,1.65,0,0,1-1.659-1.637V299.068a1.65,1.65,0,0,1,1.659-1.637h33.172a1.65,1.65,0,0,1,1.659,1.637v74.043A1.65,1.65,0,0,1,532.331,374.748Z" transform="translate(-412.655 -270)" fill="#fff"/>
  <rect id="Rectangle_35" data-name="Rectangle 35" width="36.49" height="0.51" transform="translate(84.845 51.389)" fill="#ccc"/>
  <rect id="Rectangle_36" data-name="Rectangle 36" width="36.49" height="0.51" transform="translate(84.972 80.507)" fill="#ccc"/>
  <rect id="Rectangle_37" data-name="Rectangle 37" width="0.51" height="77.572" transform="translate(96.327 27.431)" fill="#ccc"/>
  <rect id="Rectangle_38" data-name="Rectangle 38" width="0.51" height="77.572" transform="translate(109.086 27.431)" fill="#ccc"/>
</svg>
