<svg id="subscription" xmlns="http://www.w3.org/2000/svg" width="225.51" height="142.813" viewBox="0 0 225.51 142.813">
  <path id="Path_390" data-name="Path 390" d="M804.863,596.082l-.61-.012a141.537,141.537,0,0,1,2.166-20.228c2.639-14.306,7.028-23.7,13.043-27.925l.35.5C805.76,558.284,804.87,595.705,804.863,596.082Z" transform="translate(-766.067 -453.473)" fill="#2f2e41"/>
  <path id="Path_391" data-name="Path 391" d="M807.863,657.416l-.61-.012c.013-.676.395-16.6,6.665-21.008l.35.5C808.251,641.121,807.866,657.253,807.863,657.416Z" transform="translate(-761.438 -514.952)" fill="#2f2e41"/>
  <ellipse id="Ellipse_42" data-name="Ellipse 42" cx="3.052" cy="3.052" rx="3.052" ry="3.052" transform="translate(54.166 88.896)" fill="#019ba1"/>
  <ellipse id="Ellipse_43" data-name="Ellipse 43" cx="3.052" cy="3.052" rx="3.052" ry="3.052" transform="translate(52.655 115.139)" fill="#019ba1"/>
  <path id="Path_392" data-name="Path 392" d="M836.526,541.326a13.554,13.554,0,0,1-.921,6.939A12.353,12.353,0,0,1,833.528,535,13.553,13.553,0,0,1,836.526,541.326Z" transform="translate(-791.524 -444.498)" fill="#2f2e41"/>
  <path id="Path_393" data-name="Path 393" d="M788.511,574.914a13.555,13.555,0,0,1-6.994.3,12.353,12.353,0,0,1,12.7-4.356A13.555,13.555,0,0,1,788.511,574.914Z" transform="translate(-733.534 -469.189)" fill="#2f2e41"/>
  <path id="Path_394" data-name="Path 394" d="M791.642,653.989a9.5,9.5,0,0,1-4.9.212,8.658,8.658,0,0,1,8.9-3.053A9.5,9.5,0,0,1,791.642,653.989Z" transform="translate(-736.553 -525.023)" fill="#2f2e41"/>
  <path id="Path_395" data-name="Path 395" d="M447.578,342.342l19.674-10.231s6.607-7.276,10.756-10.562,5.427-.872,5.427-.872l1.744,2.907-4.215,5.863-11.386,9.642-20.345,7.969a3.226,3.226,0,1,1-1.655-4.715Z" transform="translate(-321.273 -294.983)" fill="#ffb8b8"/>
  <path id="Path_396" data-name="Path 396" d="M345.164,346.426l1.165-7.126,3.289-.822s2.61-.8,3.22,4.454.137,15.074.137,15.074l6.678,21.146a3.233,3.233,0,1,1-4.5,2.164L346.4,361.295Z" transform="translate(-167.684 -307.915)" fill="#ffb8b8"/>
  <path id="Path_397" data-name="Path 397" d="M252.893,416.116h-4.3l-2.048-16.6h6.352Z" transform="translate(-102.617 -277.601)" fill="#ffb8b8"/>
  <path id="Path_398" data-name="Path 398" d="M498.2,687.732h-8.476a5.4,5.4,0,0,0-5.4,5.4v.176H498.2Z" transform="translate(-346.828 -550.622)" fill="#2f2e41"/>
  <path id="Path_399" data-name="Path 399" d="M99.065,416.116h-4.3l-2.047-16.6h6.352Z" transform="translate(98.152 -277.601)" fill="#ffb8b8"/>
  <path id="Path_400" data-name="Path 400" d="M344.372,687.732H335.9a5.4,5.4,0,0,0-5.4,5.4v.176h13.877Z" transform="translate(-146.058 -550.622)" fill="#2f2e41"/>
  <path id="Path_401" data-name="Path 401" d="M356.083,315.847l7.138,6.094-5.858,18.539-1.322,4.14s8.071,7.442,13.065,28.231,13.164,48.412,13.164,48.412L365.026,426.2,351,379.172l-16.5,36.894-1.905,10.912-14.686-4.33,3.464-27.367,17.321-47.373-1.8-12.558a13.885,13.885,0,0,1,1.992-12.9l1.472-6.236,5.274-1.3Z" transform="translate(-180.112 -291.57)" fill="#2f2e41"/>
  <path id="Path_402" data-name="Path 402" d="M375.926,259.386h19.3a1.5,1.5,0,0,0,1.5-1.5V249.57a11.147,11.147,0,1,0-22.294,0v8.319A1.5,1.5,0,0,0,375.926,259.386Z" transform="translate(-211.815 -238.422)" fill="#2f2e41"/>
  <ellipse id="Ellipse_44" data-name="Ellipse 44" cx="8.173" cy="8.173" rx="8.173" ry="8.173" transform="translate(168.22 23.689) rotate(-118.663)" fill="#ffb8b8"/>
  <path id="Path_403" data-name="Path 403" d="M392.885,257.22h11.8l.121-1.694.605,1.694h1.817l.24-3.358,1.2,3.358h3.516v-.166a8.828,8.828,0,0,0-8.818-8.818H401.7a8.828,8.828,0,0,0-8.818,8.818Z" transform="translate(-232.908 -245.241)" fill="#2f2e41"/>
  <path id="Path_404" data-name="Path 404" d="M389.451,276.165a1.531,1.531,0,0,0,.265-.023l8.641-1.525V260.335h-9.513l.236.275c3.277,3.822.808,10.018-.955,13.372a1.475,1.475,0,0,0,.117,1.566,1.491,1.491,0,0,0,1.208.617Z" transform="translate(-217.577 -253.648)" fill="#2f2e41"/>
  <path id="Path_405" data-name="Path 405" d="M332.789,440.655l75.734,26.777a7.5,7.5,0,0,0,9.556-4.564l13.01-36.8a7.5,7.5,0,0,0-4.564-9.556l-75.734-26.776a7.5,7.5,0,0,0-9.556,4.564l-13.01,36.8A7.5,7.5,0,0,0,332.789,440.655Z" transform="translate(-232.378 -343.266)" fill="#fff"/>
  <path id="Path_406" data-name="Path 406" d="M373.155,526.253l-.069.195a7.151,7.151,0,0,0,4.36,9.125l76.113,26.91a7.151,7.151,0,0,0,9.125-4.358l.069-.195Z" transform="translate(-277.308 -438.42)" fill="#f2f2f2"/>
  <path id="Path_407" data-name="Path 407" d="M342.753,496.567c5.02,3.3,11.454.817,13.7-2.8l-.359-.2A10.2,10.2,0,0,0,342.753,496.567Z" transform="translate(-161.882 -414.775)" fill="#019ba1"/>
  <path id="Path_408" data-name="Path 408" d="M580.107,494.823a4.108,4.108,0,0,0,3.289-.059c2.155-1.071,3.166-4.246,3.979-6.8.236-.742.46-1.443.687-2.016l0-.009a4.569,4.569,0,0,0-2.769-5.8l-10.187-3.6a4.106,4.106,0,0,0-3.285.059c-2.155,1.069-3.167,4.244-3.98,6.794-.237.744-.461,1.446-.689,2.02a4.572,4.572,0,0,0,2.768,5.811Zm7.532-9.036c-.233.587-.458,1.294-.7,2.042-.787,2.47-1.766,5.543-3.749,6.529a3.628,3.628,0,0,1-2.935.038l-10.184-3.6a4.115,4.115,0,0,1-2.495-5.225c.231-.58.457-1.29.7-2.041.787-2.469,1.767-5.541,3.75-6.525a3.625,3.625,0,0,1,2.932-.038l10.186,3.6A4.114,4.114,0,0,1,587.638,485.787Z" transform="translate(-462.144 -403.66)" fill="#3f3d56"/>
  <path id="Path_409" data-name="Path 409" d="M343.411,497.195a10.573,10.573,0,0,0,11.955-3.9l.125-.2-.56-.318a10.436,10.436,0,0,0-13.651,3.077l-.123.189.188.124A9.523,9.523,0,0,0,343.411,497.195Zm11.441-3.939a9.869,9.869,0,0,1-5.973,3.8,9.459,9.459,0,0,1-7.092-1.144,9.975,9.975,0,0,1,12.907-2.747Z" transform="translate(-160.429 -414.213)" fill="#3f3d56"/>
  <path id="Path_410" data-name="Path 410" d="M388,567.281a3.766,3.766,0,0,0,3.83-.636,4.711,4.711,0,0,0,1.541-4.355,3.78,3.78,0,0,0-2.654-2.93l-13.573-4.8a3.786,3.786,0,0,0-3.9.614,4.711,4.711,0,0,0-1.539,4.355,3.8,3.8,0,0,0,2.655,2.926l13.573,4.8Zm2.632-7.47a3.335,3.335,0,0,1,2.293,2.564,4.244,4.244,0,0,1-1.389,3.923,3.339,3.339,0,0,1-3.453.53l-13.58-4.8a3.344,3.344,0,0,1-2.357-2.583,4.244,4.244,0,0,1,1.387-3.923,3.353,3.353,0,0,1,3.456-.534l13.58,4.8.062.021Z" transform="translate(-207.679 -457.889)" fill="#3f3d56"/>
  <path id="Path_411" data-name="Path 411" d="M575.886,496.668l4.279,1.513a1.135,1.135,0,0,0,.756-2.139l-4.279-1.513a1.135,1.135,0,0,0-.756,2.139Z" transform="translate(-458.014 -416.331)" fill="#019ba1"/>
  <path id="Path_412" data-name="Path 412" d="M579.852,507.886l4.279,1.513a1.135,1.135,0,0,0,.756-2.139l-4.279-1.513a1.135,1.135,0,0,0-.756,2.139Z" transform="translate(-463.19 -424.126)" fill="#019ba1"/>
  <path id="Path_413" data-name="Path 413" d="M583.818,519.1l4.279,1.513a1.135,1.135,0,0,0,.756-2.139l-4.279-1.513a1.135,1.135,0,0,0-.756,2.139Z" transform="translate(-468.366 -431.92)" fill="#019ba1"/>
  <path id="Path_414" data-name="Path 414" d="M600.424,487.993l4.279,1.513a1.135,1.135,0,0,0,.756-2.139l-4.279-1.513a1.135,1.135,0,1,0-.756,2.139Z" transform="translate(-490.04 -410.303)" fill="#019ba1"/>
  <path id="Path_415" data-name="Path 415" d="M604.39,499.21l4.279,1.513a1.135,1.135,0,1,0,.756-2.139l-4.279-1.513a1.135,1.135,0,0,0-.756,2.139Z" transform="translate(-495.216 -418.097)" fill="#019ba1"/>
  <path id="Path_416" data-name="Path 416" d="M608.356,510.427l4.279,1.513a1.135,1.135,0,0,0,.756-2.139l-4.279-1.513a1.135,1.135,0,1,0-.756,2.139Z" transform="translate(-500.393 -425.891)" fill="#019ba1"/>
  <rect id="Rectangle_39" data-name="Rectangle 39" width="95.033" height="0.454" transform="matrix(-0.943, -0.333, 0.333, -0.943, 195.47, 91.152)" fill="#3f3d56"/>
  <path id="Path_417" data-name="Path 417" d="M332.789,440.655l75.734,26.777a7.5,7.5,0,0,0,9.556-4.564l13.01-36.8a7.5,7.5,0,0,0-4.564-9.556l-75.734-26.776a7.5,7.5,0,0,0-9.556,4.564l-13.01,36.8A7.5,7.5,0,0,0,332.789,440.655Zm93.585-23.713a7.042,7.042,0,0,1,4.287,8.977l-13.01,36.8A7.042,7.042,0,0,1,408.674,467L332.94,440.227a7.042,7.042,0,0,1-4.287-8.977l13.01-36.8a7.042,7.042,0,0,1,8.977-4.287Z" transform="translate(-232.378 -343.266)" fill="#3f3d56"/>
  <path id="Path_418" data-name="Path 418" d="M241.681,705.033h224.9a.305.305,0,1,0,0-.61h-224.9a.305.305,0,1,0,0,.61Z" transform="translate(-241.376 -562.22)" fill="#cbcbcb"/>
</svg>
