<svg id="suggestions" xmlns="http://www.w3.org/2000/svg" width="185.904" height="158.62" viewBox="0 0 185.904 158.62">
  <path id="Path_438" data-name="Path 438" d="M574.862,643.44a6.653,6.653,0,0,0,6.424-1.132c2.25-1.889,2.956-5,3.529-7.88l1.7-8.521-3.555,2.448c-2.556,1.76-5.17,3.577-6.94,6.126s-2.542,6.03-1.12,8.788" transform="translate(-488.307 -498.268)" fill="#e4e4e4"/>
  <path id="Path_439" data-name="Path 439" d="M576.873,673.534a42.747,42.747,0,0,1-.593-9.855,15.5,15.5,0,0,1,2.989-8.127,13.518,13.518,0,0,1,3.469-3.143c.347-.219.666.331.321.549a12.852,12.852,0,0,0-5.084,6.134,20.6,20.6,0,0,0-1.094,8.874c.115,1.808.36,3.6.606,5.4a.329.329,0,0,1-.222.391.32.32,0,0,1-.391-.222Z" transform="translate(-489.769 -517.453)" fill="#f2f2f2"/>
  <path id="Path_442" data-name="Path 442" d="M590.433,696.4a4.9,4.9,0,0,0,4.267,2.2c2.161-.1,3.961-1.61,5.582-3.041l4.795-4.233-3.173-.152a19.039,19.039,0,0,0-6.8.493,6.472,6.472,0,0,0-4.576,4.647" transform="translate(-500.109 -545.551)" fill="#e4e4e4"/>
  <path id="Path_443" data-name="Path 443" d="M574,710.29c2.154-3.811,4.652-8.047,9.116-9.4a10.171,10.171,0,0,1,3.834-.4c.407.035.305.663-.1.628a9.451,9.451,0,0,0-6.119,1.619,15.905,15.905,0,0,0-4.206,4.538c-.7,1.061-1.32,2.166-1.944,3.27C574.38,710.9,573.8,710.647,574,710.29Z" transform="translate(-488.16 -552.335)" fill="#f2f2f2"/>
  <path id="Path_116" data-name="Path 116" d="M419,273.087H261.671V161.326H419Z" transform="translate(-261.671 -161.326)" fill="#fff"/>
  <path id="Path_117" data-name="Path 117" d="M304.272,328.4a1.533,1.533,0,0,0,0,3.066H357.4a1.533,1.533,0,1,0,0-3.066Z" transform="translate(-291.456 -282.5)" fill="#019ba1"/>
  <path id="Path_118" data-name="Path 118" d="M304.264,361.881a1.533,1.533,0,1,0-.006,3.066h53.177a1.533,1.533,0,1,0,0-3.066Z" transform="translate(-291.448 -306.781)" fill="#019ba1"/>
  <path id="Path_119" data-name="Path 119" d="M304.264,394.881a1.533,1.533,0,1,0-.006,3.066h11.966a1.533,1.533,0,1,0,0-3.066Z" transform="translate(-291.448 -330.714)" fill="#019ba1"/>
  <path id="Path_120" data-name="Path 120" d="M419,273.087H261.671V161.326H419ZM264.257,270.5h152.16V163.912H264.257Z" transform="translate(-261.671 -161.326)" fill="#e5e5e5"/>
  <path id="Path_121" data-name="Path 121" d="M646.848,478.732a2.758,2.758,0,0,0-.012,5.515h26.33a2.758,2.758,0,1,0,0-5.515Z" transform="translate(-539.021 -391.528)" fill="#e4e4e4"/>
  <path id="Path_122" data-name="Path 122" d="M646.848,357.185a2.758,2.758,0,1,0-.012,5.515h26.33a2.758,2.758,0,1,0,0-5.515Z" transform="translate(-539.021 -303.375)" fill="#e4e4e4"/>
  <path id="Path_123" data-name="Path 123" d="M304.264,483.381a1.533,1.533,0,1,0-.006,3.066h53.177a1.533,1.533,0,1,0,0-3.066Z" transform="translate(-291.448 -394.9)" fill="#e4e4e4"/>
  <path id="Path_124" data-name="Path 124" d="M304.264,516.381a1.533,1.533,0,1,0-.006,3.066h11.966a1.533,1.533,0,1,0,0-3.066Z" transform="translate(-291.448 -418.834)" fill="#e4e4e4"/>
  <path id="Path_125" data-name="Path 125" d="M304.272,449.9a1.533,1.533,0,0,0,0,3.066H357.4a1.533,1.533,0,1,0,0-3.066Z" transform="translate(-291.456 -370.619)" fill="#e4e4e4"/>
  <path id="Path_126" data-name="Path 126" d="M304.272,206.9a1.533,1.533,0,0,0,0,3.066H357.4a1.533,1.533,0,1,0,0-3.066Z" transform="translate(-291.456 -194.38)" fill="#e4e4e4"/>
  <path id="Path_127" data-name="Path 127" d="M304.264,240.381a1.533,1.533,0,1,0-.006,3.066h53.177a1.533,1.533,0,1,0,0-3.066Z" transform="translate(-291.448 -218.661)" fill="#e4e4e4"/>
  <path id="Path_128" data-name="Path 128" d="M304.264,273.381a1.533,1.533,0,1,0-.006,3.066h11.966a1.533,1.533,0,0,0,0-3.066Z" transform="translate(-291.448 -242.595)" fill="#e4e4e4"/>
  <path id="Path_129" data-name="Path 129" d="M646.848,235.732a2.758,2.758,0,1,0-.012,5.515h26.33a2.758,2.758,0,1,0,0-5.515Z" transform="translate(-539.021 -215.29)" fill="#e4e4e4"/>
  <circle id="Ellipse_4" data-name="Ellipse 4" cx="4.945" cy="4.945" r="4.945" transform="translate(108.429 18.228)" fill="#cacaca"/>
  <path id="Path_130" data-name="Path 130" d="M705.725,365.246a2.741,2.741,0,0,0,2.823,3.114l2.626,5.687,3.845-.753-3.821-7.979a2.756,2.756,0,0,0-5.473-.069Z" transform="translate(-583.707 -307.483)" fill="#ffb6b6"/>
  <path id="Path_131" data-name="Path 131" d="M478.759,240.718l-10.715-5.3-7.561-12.832-5.285,2.556,6.859,14.824,17.326,10Z" transform="translate(-330.137 -161.433)" fill="#3f3d56"/>
  <path id="Path_132" data-name="Path 132" d="M439.785,539.059h-3.368l-1.6-9.711h4.971Z" transform="translate(-315.354 -383.915)" fill="#ffb6b6"/>
  <path id="Path_133" data-name="Path 133" d="M689.034,726.383H678.173v-.137a4.227,4.227,0,0,1,4.227-4.227h6.634Z" transform="translate(-563.744 -567.974)" fill="#2f2e41"/>
  <path id="Path_134" data-name="Path 134" d="M547.761,524.322l-2.35,2.413-8.075-5.628,3.469-3.561Z" transform="translate(-389.709 -375.356)" fill="#ffb6b6"/>
  <path id="Path_135" data-name="Path 135" d="M824.011,701.549l-7.578,7.78-.1-.1a4.227,4.227,0,0,1-.079-5.978h0l4.628-4.752Z" transform="translate(-663.02 -550.92)" fill="#2f2e41"/>
  <path id="Path_136" data-name="Path 136" d="M680.394,515.652h-2.33a65.088,65.088,0,0,0-13.578,22.905l-2.783,8.148,9.919,20.768,6.189.11-7.074-22.048,7.127-9.451.359,19,22.939,12.023,4.591-6.782-18.666-10.206,3.179-16.16a11.646,11.646,0,0,0,2.671-13.671Z" transform="translate(-551.799 -418.305)" fill="#2f2e41"/>
  <path id="Path_137" data-name="Path 137" d="M754.245,427.482l-9.681-4.24-10.655,4.721s-3.017,1.716-1.094,6.112l-11.56,14.555,14.55,4.635,13.108-11.543a16.139,16.139,0,0,0,5.332-14.24Z" transform="translate(-594.989 -351.283)" fill="#3f3d56"/>
  <circle id="Ellipse_5" data-name="Ellipse 5" cx="6.748" cy="6.748" r="6.748" transform="translate(150.883 58.338)" fill="#ffb6b6"/>
  <path id="Path_138" data-name="Path 138" d="M825.964,362.716a4.658,4.658,0,0,0-5.549-.339,7.134,7.134,0,0,0-8.555,1.733,3.445,3.445,0,0,0-.873,3.136c.356,1.076,1.891,1.708,2.691.906l-.014.331a5.356,5.356,0,0,1-3.33,9.121l6.634,2.68a7.771,7.771,0,0,0,2.894.753,2.645,2.645,0,0,0,2.462-1.417l.84,2.574a42.373,42.373,0,0,0,4.043-8.335,15.891,15.891,0,0,0,1.138-5.843A7.134,7.134,0,0,0,825.964,362.716Z" transform="translate(-659.594 -306.585)" fill="#2f2e41"/>
  <circle id="Ellipse_6" data-name="Ellipse 6" cx="4.945" cy="4.945" r="4.945" transform="translate(108.429 84.99)" fill="#cacaca"/>
  <circle id="Ellipse_7" data-name="Ellipse 7" cx="4.945" cy="4.945" r="4.945" transform="translate(123.814 51.622)" fill="#019ba1"/>
  <path id="Path_139" data-name="Path 139" d="M730.725,355.246a2.741,2.741,0,0,0,2.823,3.114l2.626,5.687,3.845-.753-3.821-7.979a2.756,2.756,0,0,0-5.473-.069Z" transform="translate(-601.839 -300.23)" fill="#ffb6b6"/>
  <path id="Path_140" data-name="Path 140" d="M503.759,230.718l-10.715-5.3-7.561-12.832-5.285,2.556,6.859,14.824,17.326,10Z" transform="translate(-348.269 -154.18)" fill="#3f3d56"/>
  <path id="Path_141" data-name="Path 141" d="M660.279,737.224H555.6a.275.275,0,1,1,0-.549H660.279a.275.275,0,0,1,0,.549Z" transform="translate(-474.65 -578.604)" fill="#cacaca"/>
</svg>
