<svg xmlns="http://www.w3.org/2000/svg" width="117.757" height="89.786" viewBox="0 0 117.757 89.786">
  <g id="undraw_security_on_re_e491" transform="translate(-8.166 0.001)">
    <path id="Path_142" data-name="Path 142" d="M896.554,672.007c1.1,1.952.168,8.546.168,8.546s-6.133-2.6-7.237-4.547a4.061,4.061,0,0,1,7.069-4Z" transform="translate(-781.574 -591.237)" fill="#f1f1f1"/>
    <path id="Path_143" data-name="Path 143" d="M908.049,683.208l-.13.027a20.979,20.979,0,0,0-5.681-10.045l.09-.1A21.121,21.121,0,0,1,908.049,683.208Z" transform="translate(-792.811 -593.9)" fill="#fff"/>
    <path id="Path_144" data-name="Path 144" d="M945.639,651.939c-1.5,2.719-9.948,6.4-9.948,6.4s-1.393-9.111.1-11.829a5.62,5.62,0,0,1,9.843,5.427Z" transform="translate(-820.623 -568.946)" fill="#f1f1f1"/>
    <path id="Path_145" data-name="Path 145" d="M938.717,662.376l-.127-.134a29.036,29.036,0,0,0,7.712-13.986l.181.034A29.23,29.23,0,0,1,938.717,662.376Z" transform="translate(-823.576 -572.883)" fill="#fff"/>
    <path id="Path_146" data-name="Path 146" d="M220.066,220.407a11.56,11.56,0,0,1-2.866-.371l-.184-.051-.171-.086a47.474,47.474,0,0,1-15.514-12.178,46.1,46.1,0,0,1-7.833-13.909,53.535,53.535,0,0,1-3.027-18.859c0-.135,0-.239,0-.31a7.426,7.426,0,0,1,4.411-6.973c2.051-.855,20.672-8.5,22.017-9.055a7.15,7.15,0,0,1,5.669-.025c.97.4,18.184,7.437,21.9,9.209a7.927,7.927,0,0,1,4.857,6.755,55.01,55.01,0,0,1-3.845,20.75,48.046,48.046,0,0,1-8.635,13.915c-7.049,7.932-14.1,10.744-14.167,10.769A7.7,7.7,0,0,1,220.066,220.407Zm-1.658-4.107a6.133,6.133,0,0,0,2.936.008,39.368,39.368,0,0,0,12.581-9.691c7.619-8.574,11.485-19.352,11.491-32.036a4.054,4.054,0,0,0-2.623-3.245c-3.648-1.737-21.54-9.053-21.72-9.127l-.049-.021a3.242,3.242,0,0,0-2.391-.057l-.165.077c-.2.082-19.966,8.2-22.074,9.079a3.518,3.518,0,0,0-2,3.356c0,.089,0,.219-.006.386-.168,8.678,1.84,30.033,24.02,41.271Z" transform="translate(-182.294 -158)" fill="#3f3d56"/>
    <path id="Path_147" data-name="Path 147" d="M228.492,171.19s-19.946,8.192-22.083,9.083a5.443,5.443,0,0,0-3.206,5.165c0,2.137-1.6,30.023,25.288,43.505a8.3,8.3,0,0,0,4.292,0c1.852-.675,25.359-12.073,25.359-43.594a5.943,5.943,0,0,0-3.74-4.986c-3.74-1.781-21.821-9.171-21.821-9.171A5.255,5.255,0,0,0,228.492,171.19Z" transform="translate(-193.064 -168.794)" fill="#019ba1"/>
    <path id="Path_148" data-name="Path 148" d="M271.893,215.286v43.7s-20.124-9.687-19.946-35.153Z" transform="translate(-234.328 -206.479)" opacity="0.1"/>
    <path id="Path_149" data-name="Path 149" d="M157.645,162.152l-6.41-8.242,3.728-2.9,3.035,3.9,10.254-10.824,3.429,3.249Z" transform="translate(-122.739 -121.936)" fill="#fff"/>
    <path id="Path_150" data-name="Path 150" d="M685.27,740.307H626.694a.154.154,0,0,1,0-.307H685.27a.154.154,0,1,1,0,.307Z" transform="translate(-559.501 -650.522)" fill="#cacaca"/>
    <path id="Path_151" data-name="Path 151" d="M547.2,517.754h2.378l1.131-9.171H547.2Z" transform="translate(-463.079 -430.392)" fill="#ffb8b8"/>
    <path id="Path_152" data-name="Path 152" d="M733.725,721.187h4.683a2.984,2.984,0,0,1,2.984,2.984v.1h-7.667Z" transform="translate(-650.207 -634.601)" fill="#2f2e41"/>
    <path id="Path_153" data-name="Path 153" d="M599.2,517.754h2.378l1.131-9.171H599.2Z" transform="translate(-507.084 -430.392)" fill="#ffb8b8"/>
    <path id="Path_154" data-name="Path 154" d="M785.725,721.187h4.683a2.984,2.984,0,0,1,2.984,2.984v.1h-7.667Z" transform="translate(-694.212 -634.601)" fill="#2f2e41"/>
    <path id="Path_155" data-name="Path 155" d="M526.073,345.767l.57,29.1-4.614-.286-3.2-18.533-1.011-12.636Z" transform="translate(-438.211 -290.612)" fill="#2f2e41"/>
    <path id="Path_156" data-name="Path 156" d="M724.457,446.949l.647,34.443-5.381-.154-1.162-20.474-2.022-7.413-8.255-3.875,1.348-9.266,12.13-.168Z" transform="translate(-628.676 -396.68)" fill="#2f2e41"/>
    <circle id="Ellipse_8" data-name="Ellipse 8" cx="4.126" cy="4.126" r="4.126" transform="translate(82.377 11.185)" fill="#ffb8b8"/>
    <path id="Path_157" data-name="Path 157" d="M541.12,137.738l.632.958,1.685,4.717-1.348,18.364-7.919.169-1.011-21.06,2.117-2.647Z" transform="translate(-451.195 -116.562)" fill="#ccc"/>
    <path id="Path_158" data-name="Path 158" d="M680.546,318.572,679.2,318.4s-.337.168-.505,1.348-2.19,11.625-2.19,11.625l2.7,12.8,3.033-4.043-1.853-7.076,1.853-7.076Z" transform="translate(-601.782 -293.743)" fill="#2f2e41"/>
    <path id="Path_159" data-name="Path 159" d="M612.986,160.4H614l2.527,13.647-2.359,10.614-2.359-3.875.674-4.212-.337-3.706-1.179-2.19Z" transform="translate(-517.037 -135.743)" fill="#2f2e41"/>
    <path id="Path_160" data-name="Path 160" d="M728.737,222.395l-.75-.188s-.563-3.188-1.876-2.813-4.689.75-4.689-.75,3.188-2.813,5.064-2.626,4.271.81,4.876,3.564c.971,4.414-2,5.529-2,5.529l.05-.161a2.5,2.5,0,0,0-.673-2.555Z" transform="translate(-639.796 -207.083)" fill="#2f2e41"/>
    <path id="Path_161" data-name="Path 161" d="M695.132,298.464l5.391-2.19,1.264-.927,3.791,16.764,1.769-17.269,6.992,3.622-2.359,11.457-.337,4.38,1.011,3.538s3.538,2.527,2.359,5.223-2.527,2.864-2.527,2.864-5.728-5.391-6.065-6.739-.842-3.707-.842-3.707-2.864,10.783-6.234,10.614-3.37-3.706-3.37-3.706l.842-3.707,1.348-3.875-.674-6.4Z" transform="translate(-617.547 -273.804)" fill="#2f2e41"/>
  </g>
</svg>
