<svg id="usercolor" xmlns="http://www.w3.org/2000/svg" width="24.795" height="23.703" viewBox="0 0 24.795 23.703">
  <path id="Path_106" data-name="Path 106" d="M194.559,50.779a7.89,7.89,0,1,0-5.579-2.311A7.889,7.889,0,0,0,194.559,50.779Zm0-13.525a5.635,5.635,0,1,1-3.985,1.65A5.635,5.635,0,0,1,194.559,37.254Z" transform="translate(-182.109 -35)" fill="#019ba1"/>
  <path id="Path_107" data-name="Path 107" d="M116.6,411.205a21.415,21.415,0,0,0-23.793,0,1.127,1.127,0,1,0,1.251,1.871,19.16,19.16,0,0,1,21.29,0,1.127,1.127,0,0,0,1.251-1.871Z" transform="translate(-92.253 -389.599)" fill="#019ba1"/>
</svg>
