<svg id="verifyimg" xmlns="http://www.w3.org/2000/svg" width="235.122" height="173.276" viewBox="0 0 235.122 173.276">
  <path id="Path_375" data-name="Path 375" d="M906.963,364.322A104.053,104.053,0,0,1,893.889,390.4c-.128.187-.258.37-.389.555l-17.343-5.314c.075-.179.157-.38.245-.6,5.23-12.94,36.689-91.81,32.957-108.09C909.711,278.287,921.251,322.492,906.963,364.322Z" transform="translate(-693.075 -231.37)" fill="#e6e6e6"/>
  <path id="Path_376" data-name="Path 376" d="M921.115,583.548c-.208.162-.423.323-.639.479l-13.011-3.987c.153-.146.33-.317.534-.511,3.338-3.221,13.254-12.87,22.844-23.084,10.306-10.977,20.237-22.6,21.234-27.608C951.893,529.978,946.059,564.7,921.115,583.548Z" transform="translate(-716.955 -423.494)" fill="#e6e6e6"/>
  <path id="bcf9023f-ac5b-481c-aaa4-352627f2cc6c" d="M694.975,125.872h-.949V99.881a15.042,15.042,0,0,0-15.042-15.042H623.918a15.042,15.042,0,0,0-15.042,15.042V242.469a15.042,15.042,0,0,0,15.042,15.042h55.065a15.042,15.042,0,0,0,15.042-15.042v-98.1h.949Z" transform="translate(-489.209 -84.839)" fill="#3f3d56"/>
  <path id="f7950315-d447-41b3-b140-1076b53a001f" d="M692.929,101.332h-7.188a5.337,5.337,0,0,1-4.942,7.354H649.254a5.337,5.337,0,0,1-4.941-7.353H637.6a11.234,11.234,0,0,0-11.234,11.234h0V254.944A11.234,11.234,0,0,0,637.6,266.178h55.329a11.234,11.234,0,0,0,11.234-11.234h0V112.566a11.234,11.234,0,0,0-11.234-11.234h0Z" transform="translate(-502.548 -97.419)" fill="#fff"/>
  <circle id="f890d8c3-e731-49cb-a2e5-5c59e9f60352" cx="6.169" cy="6.169" r="6.169" transform="translate(155.733 154.989) rotate(-80.783)" fill="#e6e6e6"/>
  <g id="a1a6c59b-3717-4dad-b370-97c9e621082a" transform="translate(128.609 78.405)">
    <rect id="aadecade-068c-4f25-a9ef-29b7b9ecc005" width="68.21" height="13.467" fill="#e6e6e6"/>
    <path id="be47b05f-620a-4a83-9c0d-c2bf8bc76fef" d="M652.7,431.99H718V421.432H652.7Z" transform="translate(-651.241 -419.977)" fill="#fff"/>
    <path id="a28d2100-c4d0-4925-85de-1e7d52571659" d="M663.857,426.357a4.023,4.023,0,1,1-4.023,4.023A4.023,4.023,0,0,1,663.857,426.357Z" transform="translate(-656.686 -423.733)" fill="#019ba1"/>
    <rect id="bf3352be-1ca2-4e23-bbaf-f2f5ef64af93" width="39.702" height="0.875" transform="translate(16.79 5.072)" fill="#e6e6e6"/>
    <rect id="bb396d43-890f-415a-a911-0c113deb0c88" width="39.702" height="0.875" transform="translate(16.79 7.346)" fill="#e6e6e6"/>
  </g>
  <g id="a76a8676-f787-4aac-bc26-4d28e625d812" transform="translate(128.609 97.623)">
    <rect id="a3fed62c-a480-4fda-a6ab-9c7719a11d03" width="68.21" height="13.467" fill="#e6e6e6"/>
    <path id="b2013604-1388-480a-bf39-bc8d6d6f2c30" d="M652.7,512.99H718V502.432H652.7Z" transform="translate(-651.241 -500.977)" fill="#fff"/>
    <circle id="a10785fe-0480-48e0-a209-79d56eb9fb83" cx="4.023" cy="4.023" r="4.023" transform="translate(3.148 2.624)" fill="#019ba1"/>
    <rect id="e4ba10f0-0456-4e2c-9d9e-10f625ff54d2" width="39.702" height="0.875" transform="translate(16.79 5.072)" fill="#e6e6e6"/>
    <rect id="a086a789-ddcc-4a0c-b196-f7973999ed5b" width="39.702" height="0.875" transform="translate(16.79 7.346)" fill="#e6e6e6"/>
  </g>
  <g id="a5a5e7c6-2328-4bbd-a0bc-78368cb001e7" transform="translate(128.609 116.841)">
    <rect id="be3c08ee-83a5-46f6-b550-c65a1a75b35b" width="68.21" height="13.467" fill="#e6e6e6"/>
    <path id="beee7471-5a7b-446e-b565-9b3273ba023a" d="M652.7,593.99H718V583.432H652.7Z" transform="translate(-651.241 -581.977)" fill="#fff"/>
    <circle id="f8684faf-2b28-4db0-a7a9-e69102a88591" cx="4.023" cy="4.023" r="4.023" transform="translate(3.148 2.624)" fill="#019ba1"/>
    <rect id="e7cf9a62-74c8-4968-991d-f63bde6d8d74" width="39.702" height="0.875" transform="translate(16.79 5.072)" fill="#e6e6e6"/>
    <rect id="b57b1a7e-a030-4cfd-a852-c296d4f42a3d" width="39.702" height="0.875" transform="translate(16.79 7.346)" fill="#e6e6e6"/>
  </g>
  <circle id="Ellipse_40" data-name="Ellipse 40" cx="18.981" cy="18.981" r="18.981" transform="translate(143.733 27.028)" fill="#019ba1"/>
  <path id="Path_377" data-name="Path 377" d="M769.818,250.595v12.051a.861.861,0,0,1-.861.861H752.173a.861.861,0,0,1-.861-.861V250.595a.805.805,0,0,1,.052-.288.852.852,0,0,1,.682-.562.818.818,0,0,1,.127-.011h16.785a.819.819,0,0,1,.127.011.852.852,0,0,1,.682.562A.805.805,0,0,1,769.818,250.595Z" transform="translate(-597.851 -210.611)" fill="#fff"/>
  <path id="Path_378" data-name="Path 378" d="M769.932,250.341,760.987,257a.424.424,0,0,1-.512,0l-8.945-6.658a.852.852,0,0,1,.682-.562l8.519,6.339,8.519-6.339a.851.851,0,0,1,.682.562Z" transform="translate(-598.017 -210.646)" fill="#019ba1"/>
  <path id="Path_379" data-name="Path 379" d="M323.058,291.48c0,5.886,5.443,5,12.156,5s12.156.89,12.156-5-2.659-16.319-12.156-16.319C325.389,275.161,323.058,285.594,323.058,291.48Z" transform="translate(-271.205 -230.005)" fill="#2f2e41"/>
  <path id="Path_380" data-name="Path 380" d="M363.463,658.144l3.886-1.253-2.982-15.586-5.736,1.849Z" transform="translate(-273.543 -489.149)" fill="#ffb8b8"/>
  <path id="Path_381" data-name="Path 381" d="M477.6,784.385l7.653-2.467h0a5.124,5.124,0,0,1,6.449,3.305l.051.159-12.531,4.039Z" transform="translate(-389.081 -616.339)" fill="#2f2e41"/>
  <path id="Path_382" data-name="Path 382" d="M177.935,662.187h4.083l1.942-15.749h-6.026Z" transform="translate(-135.718 -493.064)" fill="#ffb8b8"/>
  <path id="Path_383" data-name="Path 383" d="M278.054,792.038H286.1a5.124,5.124,0,0,1,5.124,5.125v.166H278.054Z" transform="translate(-236.879 -624.247)" fill="#2f2e41"/>
  <path id="Path_384" data-name="Path 384" d="M257.457,416.265h0a3.766,3.766,0,0,1,.629-5.4,3.629,3.629,0,0,1,.469-.3l13.319-31.325a3.015,3.015,0,1,1,5.681,2.02l-13.716,31.167a3.764,3.764,0,0,1-6.382,3.834Z" transform="translate(-220.512 -307.864)" fill="#ffb8b8"/>
  <path id="Path_385" data-name="Path 385" d="M418.3,426.868a3.741,3.741,0,0,1-1.5-4.645l-13.72-31.177a3.015,3.015,0,1,1,5.681-2.02l13.323,31.335a3.625,3.625,0,0,1,.469.3,3.766,3.766,0,0,1,.629,5.4h0a3.769,3.769,0,0,1-2.912,1.369,3.723,3.723,0,0,1-1.965-.557Z" transform="translate(-332.104 -315.325)" fill="#ffb8b8"/>
  <circle id="Ellipse_41" data-name="Ellipse 41" cx="8.18" cy="8.18" r="8.18" transform="translate(52.948 55.027) rotate(-28.663)" fill="#ffb8b8"/>
  <path id="Path_386" data-name="Path 386" d="M320.63,397.816l-1.622-18.846a5.366,5.366,0,0,1,6.02-5.783L340.1,375.1a5.354,5.354,0,0,1,4.67,5.809c-.6,6.734-2.269,18.556-6.73,22.078l-.068.054Z" transform="translate(-268.1 -304.741)" fill="#2f2e41"/>
  <path id="Path_387" data-name="Path 387" d="M282.917,539.98l-6.254-.741a1.493,1.493,0,0,1-1.338-1.5c.014-3.01.006-6.092,0-9.072-.064-25.538-.124-49.659,11.9-56.315l.065-.036,17.494,6.055.67,11.72,14.2,20.12a18.015,18.015,0,0,1,2.615,5.47l5.277,18.536a1.5,1.5,0,0,1-1.1,1.871l-6.151,1.419a1.5,1.5,0,0,1-1.741-.937l-8.241-20.519-16.747-18.045a.5.5,0,0,0-.849.248l-8.168,40.528a1.5,1.5,0,0,1-1.631,1.194Z" transform="translate(-234.789 -380.387)" fill="#2f2e41"/>
  <path id="Path_388" data-name="Path 388" d="M353.272,299.26h-3.235l-1.427-4-.285,4h-1.546l-.833-2.331-.167,2.331h-11.49a8.659,8.659,0,0,1,8.659-8.659h1.665a8.659,8.659,0,0,1,8.659,8.659Z" transform="translate(-279.771 -241.782)" fill="#2f2e41"/>
  <path id="Path_389" data-name="Path 389" d="M336.788,813.635H104.747a.237.237,0,1,1,0-.474H336.788a.237.237,0,0,1,0,.474Z" transform="translate(-104.51 -640.359)" fill="#cacaca"/>
</svg>
